<svg version="1.1" id="Layer_1" xmlns="http://www.w3.org/2000/svg" xmlns:xlink="http://www.w3.org/1999/xlink" x="0px" y="0px"
	 width="100%" viewBox="0 0 1000 224" enable-background="new 0 0 1000 224" xml:space="preserve">
<path fill="#FFFFFF" opacity="1.000000" stroke="none" 
	d="
M729.000000,225.000000 
	C486.000000,225.000000 243.500000,225.000000 1.000000,225.000000 
	C1.000000,150.333328 1.000000,75.666664 1.000000,1.000000 
	C334.333344,1.000000 667.666687,1.000000 1001.000000,1.000000 
	C1001.000000,75.666664 1001.000000,150.333328 1001.000000,225.000000 
	C910.500000,225.000000 820.000000,225.000000 729.000000,225.000000 
M197.678101,62.938343 
	C184.917084,55.991253 172.169571,49.019005 159.368256,42.147003 
	C158.391663,41.622749 156.757660,41.285088 155.894852,41.741291 
	C140.920532,49.658905 126.019196,57.714558 110.997894,65.796051 
	C110.997894,81.132355 110.936745,96.446396 111.097321,111.758102 
	C111.112534,113.207893 112.143555,115.317917 113.336891,115.981628 
	C126.601547,123.359070 139.927917,130.634628 153.418503,137.586655 
	C155.347198,138.580551 158.671951,138.567810 160.606216,137.573257 
	C173.522766,130.931915 186.173248,123.774040 199.071014,117.094536 
	C201.665924,115.750679 202.054977,114.222954 202.040710,111.745728 
	C201.961182,97.926315 201.878860,84.104301 202.092285,70.287727 
	C202.143539,66.970009 201.287048,64.673599 197.678101,62.938343 
M59.997814,175.500000 
	C59.997925,182.829819 59.846607,190.165329 60.122410,197.484756 
	C60.179443,198.998367 61.467964,201.087357 62.794910,201.833664 
	C74.147095,208.218445 85.476593,214.691513 97.195923,220.344009 
	C100.376991,221.878296 103.428688,225.798309 108.345634,223.017105 
	C121.706688,215.459579 135.338318,208.381485 148.769257,200.944565 
	C149.875366,200.332092 150.893005,198.448044 150.906342,197.144119 
	C151.056381,182.486069 151.055267,167.825378 150.907166,153.167297 
	C150.894257,151.890228 149.870941,150.045715 148.778122,149.444962 
	C135.094955,141.922897 121.334076,134.540436 107.516457,127.267853 
	C106.326881,126.641747 104.291008,126.474411 103.157097,127.067230 
	C89.992355,133.949936 76.939072,141.045395 63.822296,148.020630 
	C60.936981,149.554993 59.720650,151.558975 59.900654,155.014481 
	C60.238159,161.493759 59.997818,168.003143 59.997814,175.500000 
M62.365704,134.929703 
	C73.280144,129.094635 84.161217,123.195610 95.133347,117.471115 
	C97.754189,116.103737 99.096764,114.543312 99.064445,111.387520 
	C98.917885,97.073990 99.050987,82.757637 98.914795,68.443893 
	C98.902359,67.136787 98.037666,65.215309 96.986023,64.634842 
	C83.304512,57.083195 69.540176,49.679695 55.716305,42.391373 
	C54.553440,41.778282 52.533569,41.721813 51.383057,42.317242 
	C37.812988,49.340206 24.303595,56.483059 10.875839,63.774117 
	C9.582817,64.476204 8.140338,66.373474 8.124083,67.732147 
	C7.933065,83.697853 8.001453,99.666656 8.001453,115.413521 
	C20.844591,122.197807 33.658012,128.353409 45.794441,135.637085 
	C51.823204,139.255249 56.476562,139.197220 62.365704,134.929703 
M120.616760,9.925588 
	C116.478065,7.631001 112.418739,5.169779 108.154541,3.138691 
	C106.793953,2.490631 104.608055,2.404361 103.280304,3.049680 
	C95.099709,7.025635 87.056587,11.284442 79.000504,15.432322 
	C79.000504,24.110910 78.838570,32.427361 79.129883,40.727905 
	C79.192101,42.500755 80.458580,44.983273 81.924995,45.826771 
	C88.847404,49.808647 96.001366,53.396248 103.155167,56.958969 
	C104.272789,57.515564 106.094017,57.757973 107.116562,57.229614 
	C114.067184,53.638168 120.974869,49.941891 127.691483,45.935879 
	C129.208496,45.031086 130.780045,42.808796 130.851593,41.130131 
	C131.184097,33.327362 131.078308,25.500822 130.914154,17.687311 
	C130.888672,16.474186 130.049942,14.834163 129.063538,14.173259 
	C126.658669,12.561980 123.946465,11.409429 120.616760,9.925588 
M12.349047,182.068359 
	C16.351379,184.289413 20.233761,186.786728 24.412634,188.601196 
	C26.186804,189.371552 28.932114,189.417099 30.634592,188.575439 
	C37.506187,185.178299 44.183075,181.375702 50.824718,177.537445 
	C51.837971,176.951874 52.882511,175.402039 52.903606,174.279236 
	C53.072201,165.305664 52.997753,156.327515 52.997753,147.458267 
	C45.525230,143.403809 38.292942,139.601425 31.194677,135.563431 
	C28.653099,134.117599 26.566280,133.946915 23.956617,135.444458 
	C18.290367,138.695999 12.530159,141.810669 6.648062,144.649109 
	C3.118846,146.352173 1.512613,148.516235 1.907490,152.600876 
	C2.322475,156.893478 2.530499,161.337784 1.888052,165.573059 
	C0.620441,173.929688 3.280634,179.494492 12.349047,182.068359 
M157.039185,175.787415 
	C165.158661,180.437500 173.243698,185.150528 181.449860,189.642273 
	C182.288742,190.101440 183.969971,189.472839 185.062439,188.941895 
	C190.768005,186.168839 196.619080,183.598877 201.974411,180.247040 
	C204.240051,178.829025 208.257721,178.756531 208.084900,174.165649 
	C207.778275,166.020996 208.125336,157.852600 207.874588,149.704132 
	C207.832367,148.332184 206.462387,146.479965 205.190033,145.754883 
	C198.810928,142.119598 192.345337,138.604935 185.708588,135.475296 
	C184.097336,134.715485 181.482376,135.022537 179.744965,135.785904 
	C173.946472,138.333572 168.308197,141.255112 162.664917,144.143555 
	C158.932083,146.054169 156.310959,148.263107 156.825165,153.454529 
	C157.527252,160.542618 157.003326,167.752151 157.039185,175.787415 
M290.706146,163.998581 
	C284.525940,161.579926 282.657959,156.844650 282.920807,150.536011 
	C283.127777,145.568314 285.715240,142.403549 289.862335,140.818359 
	C294.814117,138.925598 299.708466,139.104858 303.100647,144.291245 
	C303.418549,144.777283 304.705353,145.156235 305.207245,144.907837 
	C307.988403,143.531448 310.665833,141.945419 313.441437,140.396210 
	C304.282349,127.753181 290.293732,128.072998 280.548828,134.243881 
	C271.003510,140.288376 269.504578,151.457336 273.889282,162.213486 
	C277.901245,172.055344 290.288452,176.556686 302.067108,172.893967 
	C310.335388,170.322815 317.053406,160.616776 314.524628,150.230286 
	C307.799255,150.230286 301.051514,150.230286 294.227966,150.230286 
	C294.227966,152.875687 294.227966,155.284561 294.227966,158.000000 
	C296.078339,158.000000 297.715973,157.968445 299.351807,158.009155 
	C300.882599,158.047241 302.411469,158.161957 304.275238,158.260620 
	C299.831726,164.683762 296.936615,165.898453 290.706146,163.998581 
M492.999786,100.309113 
	C492.999786,87.559570 492.999786,74.810028 492.999786,62.353157 
	C489.228180,62.353157 486.152039,62.353157 482.692566,62.353157 
	C482.692566,67.116287 482.692566,71.524323 482.692566,75.644516 
	C476.875031,75.644516 471.462677,75.644516 465.683899,75.644516 
	C465.683899,70.873436 465.683899,66.458572 465.683899,62.179085 
	C462.333130,62.179085 459.376617,62.179085 456.354431,62.179085 
	C456.354431,75.886902 456.354431,89.412712 456.354431,102.820915 
	C459.666931,102.820915 462.623474,102.820915 466.149292,102.820915 
	C466.149292,97.120209 466.149292,91.573631 466.149292,86.363800 
	C472.138458,86.363800 477.550903,86.363800 483.331848,86.363800 
	C483.331848,92.138641 483.331848,97.550201 483.331848,103.936020 
	C486.956696,102.936150 489.976562,102.103165 492.999786,100.309113 
M832.999878,154.623581 
	C831.415771,160.792709 832.484375,166.408005 837.825012,170.135941 
	C842.759827,173.580643 848.225281,173.014099 854.087036,170.356842 
	C853.550842,173.021698 853.077881,176.240814 851.228882,177.635101 
	C849.731445,178.764343 845.076172,178.578751 844.418091,177.455322 
	C841.434998,172.363068 837.162659,174.280334 833.133667,174.166794 
	C833.960876,187.316055 845.374023,187.389542 855.880127,184.986740 
	C860.178833,184.003616 862.640320,180.312546 862.823059,176.468262 
	C863.317993,166.053421 862.992737,155.599594 862.992737,144.697006 
	C859.248230,145.063766 856.122314,145.369919 852.996460,145.676071 
	C846.660583,142.766846 834.975037,144.305115 832.999878,154.623581 
M701.999573,155.134537 
	C701.999573,161.052826 701.999573,166.971130 701.999573,172.681610 
	C705.713135,172.681610 708.785217,172.681610 712.002197,172.681610 
	C712.002197,166.557266 711.779602,160.735291 712.172974,154.955215 
	C712.261292,153.657639 714.503723,152.506668 715.754517,151.288223 
	C716.502991,152.506577 717.850159,153.701904 717.898010,154.947220 
	C718.125793,160.870926 717.999939,166.808243 717.999939,172.751495 
	C721.578247,172.751495 724.646179,172.751495 728.000000,172.751495 
	C728.000000,166.883194 728.000366,161.258484 727.999878,155.633774 
	C727.999084,146.473480 726.205811,144.571808 717.175781,145.107452 
	C714.970520,145.238266 712.844421,146.704407 710.567017,147.601883 
	C707.574341,143.634262 703.211975,144.855438 698.976074,145.534821 
	C698.010010,145.689743 697.029053,146.305389 696.124084,146.185928 
	C693.162415,145.794922 690.232666,145.162689 687.310669,144.626877 
	C687.310669,154.741821 687.310669,163.806305 687.310669,172.688095 
	C690.364868,172.688095 693.101746,172.688095 696.000000,172.688095 
	C696.000000,166.905365 695.795288,161.420700 696.133362,155.969711 
	C696.226318,154.469650 697.940247,153.070129 698.910400,151.624466 
	C699.938049,152.504883 700.965637,153.385300 701.999573,155.134537 
M351.000000,62.596203 
	C351.000000,60.820560 351.000000,59.044918 351.000000,57.249470 
	C347.424377,57.249470 344.354340,57.249470 341.233398,57.249470 
	C341.233398,72.566566 341.233398,87.633087 341.233398,103.168030 
	C344.727203,101.839310 349.013763,105.335121 351.682709,100.613892 
	C357.703033,104.399055 364.849182,104.205620 368.711578,99.744156 
	C374.345245,93.236801 373.797333,85.530609 369.319061,78.930870 
	C366.015198,74.061829 358.114227,73.678741 351.000000,77.572762 
	C351.000000,72.856621 351.000000,68.212212 351.000000,62.596203 
M454.666351,172.995712 
	C457.413483,172.995712 460.160614,172.995712 463.487366,172.995712 
	C462.958649,165.233551 462.807159,158.143341 461.808319,151.174576 
	C461.489868,148.952942 459.109833,145.547882 457.342621,145.326797 
	C453.874237,144.892914 450.174805,146.318527 446.568665,146.961456 
	C445.952362,147.071350 445.084686,147.418777 444.737854,147.144577 
	C439.742035,143.194473 434.940979,144.422058 430.473633,147.336609 
	C428.115448,142.998764 424.340454,145.839935 421.229980,144.982422 
	C421.229980,154.542343 421.229980,163.613571 421.229980,172.773727 
	C424.199646,172.773727 426.934296,172.773727 430.000000,172.773727 
	C430.000000,167.594971 430.079468,162.633209 429.970093,157.675598 
	C429.904938,154.722610 430.476776,151.860779 433.882263,152.276108 
	C435.117401,152.426773 436.700287,155.638657 436.858673,157.558197 
	C437.276245,162.619308 436.999969,167.737656 436.999969,172.704163 
	C440.331787,172.704163 443.069733,172.704163 446.000549,172.704163 
	C446.000549,167.435516 445.877319,162.456802 446.050629,157.488434 
	C446.142426,154.857498 446.611237,151.989059 450.217743,152.044189 
	C453.957184,152.101349 452.866364,155.097946 452.983002,157.219467 
	C453.270935,162.456909 453.472443,167.699097 454.666351,172.995712 
M538.573486,131.000000 
	C536.468567,131.000000 534.363647,131.000000 532.262939,131.000000 
	C532.262939,145.262878 532.262939,158.999237 532.262939,172.739365 
	C541.270264,172.739365 550.012512,172.739365 558.737305,172.739365 
	C558.737305,169.734192 558.737305,166.996216 558.737305,163.873138 
	C553.066223,163.873138 547.646973,163.873138 542.264099,163.873138 
	C542.264099,160.731049 542.264099,157.992889 542.264099,154.872284 
	C547.606506,154.872284 552.696655,154.872284 557.735901,154.872284 
	C557.735901,152.063950 557.735901,149.658066 557.735901,146.872375 
	C552.390991,146.872375 547.299011,146.872375 542.261475,146.872375 
	C542.261475,144.401566 542.261475,142.330292 542.261475,139.874237 
	C547.932861,139.874237 553.354370,139.874237 558.735596,139.874237 
	C558.735596,136.731201 558.735596,133.993301 558.735596,131.000000 
	C552.169922,131.000000 545.864990,131.000000 538.573486,131.000000 
M578.528931,172.059967 
	C584.982788,174.744705 591.160339,173.349823 594.566284,167.857239 
	C598.500549,161.512665 597.836182,152.918015 592.367859,147.788605 
	C587.152588,142.896545 582.389587,142.675308 575.607849,147.232056 
	C572.709900,142.889374 568.630981,145.993866 565.206055,144.959869 
	C565.206055,158.517532 565.206055,171.573242 565.206055,184.801819 
	C568.479736,184.801819 571.546570,184.801819 574.967041,184.801819 
	C574.967041,179.906815 574.967041,175.192963 574.967041,169.967239 
	C576.209229,170.867050 576.970886,171.418808 578.528931,172.059967 
M630.299988,145.000000 
	C624.004700,143.937286 619.450867,147.029388 617.183594,152.251175 
	C614.618286,158.159317 614.965332,164.436234 619.967102,169.438278 
	C625.568176,175.039658 631.665894,173.561966 637.156860,170.549896 
	C639.786682,174.800720 643.582520,172.208679 646.656433,173.046234 
	C646.656433,157.431320 646.656433,142.247086 646.656433,127.349487 
	C643.569092,127.349487 640.829895,127.349487 637.946960,127.349487 
	C637.946960,134.301514 637.946960,140.904877 637.946960,147.231415 
	C635.636353,146.471375 633.399780,145.735718 630.299988,145.000000 
M662.964417,68.389076 
	C657.221008,79.749428 651.477600,91.109779 645.466309,103.000000 
	C648.431458,103.000000 650.437073,102.838104 652.407349,103.033211 
	C656.699890,103.458267 659.858093,102.628510 660.222229,97.464752 
	C660.282776,96.606644 661.361572,95.383789 662.228638,95.087852 
	C669.498291,92.606644 675.148560,95.521271 677.542175,102.896133 
	C681.486816,102.896133 685.466309,102.896133 689.935242,102.896133 
	C682.556213,88.144867 675.261963,73.563004 667.807068,58.660027 
	C666.022278,62.011761 664.528259,64.817322 662.964417,68.389076 
M284.000244,91.683464 
	C284.933197,90.789078 285.737274,89.372177 286.824677,89.104004 
	C289.467773,88.452164 292.287140,88.539108 294.954865,87.958260 
	C300.561279,86.737579 303.329071,83.396072 304.906403,76.247833 
	C305.904419,71.725159 302.950623,65.094307 298.242279,64.037933 
	C290.444550,62.288406 282.299347,62.087646 274.253021,61.229301 
	C274.253021,75.980209 274.253021,89.356598 274.253021,102.755936 
	C277.577393,102.755936 280.642639,102.755936 284.000000,102.755936 
	C284.000000,99.225258 284.000000,95.934784 284.000244,91.683464 
M615.072449,82.622513 
	C615.540771,89.285004 616.009094,95.947495 616.491211,102.806770 
	C619.467529,102.806770 622.534607,102.806770 626.000000,102.806770 
	C626.000000,96.675888 626.032104,90.729187 625.991394,84.782982 
	C625.946960,78.305374 623.814575,75.235695 617.640259,74.433105 
	C614.882629,74.074646 611.894409,75.489784 608.778320,76.149208 
	C608.778320,70.081291 608.778320,63.654518 608.778320,57.266258 
	C605.388123,57.266258 602.318970,57.266258 599.000000,57.266258 
	C599.000000,64.989128 599.000000,72.448669 599.000000,79.908203 
	C599.000000,87.507790 599.000000,95.107384 599.000000,102.765533 
	C602.549805,102.765533 605.617737,102.765533 609.000000,102.765533 
	C609.000000,97.413277 609.076965,92.287811 608.974670,87.165916 
	C608.898071,83.331459 610.648010,81.680199 615.072449,82.622513 
M346.271423,160.999802 
	C347.180847,160.084671 348.809021,159.226486 348.886749,158.245468 
	C349.547485,149.906433 343.745087,145.384323 333.591583,144.896042 
	C322.521423,144.363663 316.237915,153.375870 319.796753,164.301453 
	C322.650909,173.063583 331.350494,174.373566 340.131989,172.294022 
	C344.298157,171.307449 347.852448,169.172791 349.033081,164.548752 
	C344.611359,162.888901 340.815521,162.648163 336.631714,165.530136 
	C333.416107,167.745209 329.639496,165.070923 329.354340,161.000000 
	C334.683319,161.000000 339.998413,161.000000 346.271423,160.999802 
M680.167908,150.731873 
	C676.789062,145.993240 672.206604,144.906464 666.481140,144.831268 
	C654.915710,144.679382 649.665222,153.451584 652.520569,163.966141 
	C654.600403,171.625244 663.966736,175.298523 673.126892,172.372467 
	C677.219360,171.065201 680.790039,169.166519 682.058411,164.593918 
	C677.665710,162.969437 673.889893,162.538727 669.715454,165.495087 
	C666.560059,167.729706 662.752075,165.135605 662.199890,160.836746 
	C668.814514,160.836746 675.383057,160.836746 682.510925,160.836746 
	C681.866272,157.273239 681.321533,154.262085 680.167908,150.731873 
M930.986450,97.148842 
	C931.657593,94.867882 932.676758,92.624985 932.931396,90.298439 
	C933.563721,84.519798 931.358215,79.881439 926.193481,77.052238 
	C920.411682,73.884995 914.477905,74.050568 908.586182,76.949982 
	C902.201599,80.091965 901.477539,85.776367 902.035828,91.889481 
	C902.532410,97.326340 905.842651,100.971115 910.884888,102.221680 
	C918.011902,103.989281 925.162720,104.241241 930.986450,97.148842 
M860.994446,89.457611 
	C861.646057,78.436684 856.094666,75.955009 850.156006,75.081459 
	C839.636414,73.534050 833.187683,77.679634 831.103760,86.715157 
	C829.635620,93.080925 833.762573,100.349152 840.155212,102.655968 
	C848.230957,105.570198 857.643250,102.248062 861.145142,94.671585 
	C857.493225,94.872520 854.753113,91.100853 850.647339,94.865585 
	C847.051270,98.163055 842.769470,96.127777 841.242126,91.325623 
	C847.804138,91.012985 854.366150,90.700340 860.994446,89.457611 
M528.154846,90.959740 
	C529.979309,85.074043 527.576538,78.282928 522.335510,76.201004 
	C515.823242,73.614090 504.838470,74.299362 501.002899,80.812927 
	C496.840240,87.881882 498.754517,97.389801 505.184235,101.041176 
	C513.847534,105.960968 524.473999,103.463539 529.112610,95.081352 
	C525.341003,94.230080 522.199707,91.167847 518.046875,95.173660 
	C514.863525,98.244324 510.592743,96.009872 509.203430,90.997307 
	C515.251648,90.997307 521.232300,90.997307 528.154846,90.959740 
M800.315796,166.847473 
	C804.487915,172.078705 810.009399,173.742813 816.467407,173.005371 
	C822.010010,172.372467 827.187378,169.950317 828.478943,164.662735 
	C829.762634,159.407410 830.456970,153.508362 825.364807,148.612137 
	C820.777649,144.201431 808.073608,143.836136 803.078979,147.898499 
	C798.178528,151.884247 796.794373,158.152161 800.315796,166.847473 
M753.049438,169.575348 
	C757.677673,173.655579 763.469604,173.800232 768.806580,172.799835 
	C776.206543,171.412796 781.554077,162.836319 779.280273,155.487457 
	C776.984985,148.068924 771.470947,144.413498 762.775085,144.886795 
	C756.786072,145.212769 752.441345,147.508148 749.825439,152.749161 
	C747.156250,158.097153 748.378967,164.598114 753.049438,169.575348 
M387.906342,167.359726 
	C392.077759,172.938889 398.016937,173.704956 404.240326,172.925430 
	C409.503082,172.266220 413.851288,169.519760 415.783051,164.448029 
	C417.972870,158.698792 415.724915,151.284546 411.311615,147.861404 
	C406.329437,143.997009 400.614044,144.387024 394.972870,145.579330 
	C387.252716,147.211014 381.845306,156.474945 387.906342,167.359726 
M738.356934,99.883865 
	C743.341370,104.140678 749.261963,104.312271 755.506409,100.574448 
	C757.760620,105.111763 761.639465,102.079605 764.999451,103.148209 
	C764.999451,96.139778 765.333008,89.656975 764.814209,83.243134 
	C764.638367,81.069107 762.789673,78.197548 760.878906,77.144562 
	C753.604431,73.135742 746.272278,74.342964 739.301880,77.850121 
	C740.487976,83.377510 742.827148,85.221794 748.167175,82.531853 
	C752.032959,80.584503 754.482117,82.368927 755.677734,86.688911 
	C739.486633,85.477112 735.129639,88.549835 738.356934,99.883865 
M873.175415,145.000076 
	C870.798584,145.000076 868.421692,145.000076 865.169678,145.000076 
	C866.949829,148.675476 868.221924,151.413788 869.588928,154.103851 
	C874.184204,163.146729 879.588623,172.096710 871.993286,182.198669 
	C871.488342,182.870331 871.359619,183.824829 870.982605,184.846146 
	C874.498169,184.846146 877.628540,184.846146 880.461365,184.846146 
	C886.325989,171.504974 892.087646,158.398102 897.977356,145.000000 
	C895.893738,145.000000 894.366211,145.200134 892.911133,144.960617 
	C889.263306,144.360123 887.204834,145.629105 886.158325,149.309555 
	C885.195984,152.694061 883.588074,155.895004 881.963196,159.924011 
	C880.061218,155.166977 878.651184,151.287781 876.927856,147.553192 
	C876.435852,146.487000 875.034912,145.840240 873.175415,145.000076 
M533.017212,89.836861 
	C529.386658,98.579964 534.630432,103.913124 541.860474,102.973404 
	C544.512085,102.628769 547.146606,101.485451 549.748474,101.602875 
	C552.680420,101.735207 555.566772,102.878372 559.000000,103.709450 
	C559.000000,96.428551 559.013367,90.296600 558.996033,84.164726 
	C558.980469,78.669563 555.611511,74.941124 550.079651,75.082962 
	C544.687988,75.221230 539.313782,76.039612 533.000610,76.649338 
	C534.642517,80.035454 535.647156,82.107285 536.617676,84.108818 
	C547.764709,80.819984 549.604065,81.243279 549.434265,86.819603 
	C543.824707,85.742592 538.209961,84.628830 533.017212,89.836861 
M317.996429,76.729256 
	C314.869385,75.928246 311.742310,75.127235 308.000000,74.168625 
	C308.000000,80.998222 308.005493,86.610901 307.998138,92.223564 
	C307.992950,96.188652 307.923126,100.083046 312.464996,102.090485 
	C317.237488,104.199821 321.626953,104.378319 325.344025,100.363670 
	C327.707703,105.364418 331.624023,102.126442 334.734375,102.867836 
	C334.734375,93.359909 334.734375,84.296501 334.734375,75.261917 
	C331.727997,75.261917 328.993713,75.261917 325.999756,75.261917 
	C325.999756,80.813705 326.413452,86.157654 325.786591,91.376610 
	C325.551331,93.335068 323.115051,96.152695 321.289551,96.497147 
	C319.250427,96.881897 317.717621,94.548729 317.915344,91.651718 
	C318.231659,87.017212 317.999847,82.345291 317.996429,76.729256 
M778.875671,75.013016 
	C776.293213,75.013016 773.710754,75.013016 771.302124,75.013016 
	C771.302124,84.718666 771.302124,93.784737 771.302124,102.697006 
	C774.348022,102.697006 777.084961,102.697006 780.000488,102.697006 
	C780.000488,97.423378 779.856323,92.445526 780.056396,87.481544 
	C780.170349,84.653366 780.761963,81.925186 784.717834,81.959702 
	C788.820007,81.995483 787.957031,84.877373 787.982361,87.226082 
	C788.038818,92.471420 788.000000,97.717796 788.000000,102.644806 
	C791.781311,102.644806 794.852051,102.644806 798.000000,102.644806 
	C798.000000,96.805870 798.004456,91.321823 797.998962,85.837799 
	C797.990356,77.260963 794.247192,73.843430 785.822937,75.081757 
	C783.848511,75.371986 782.019409,76.650734 780.165405,77.456444 
	C780.034912,76.822273 779.869263,76.017151 778.875671,75.013016 
M363.010620,146.843155 
	C360.167664,146.012833 357.324707,145.182495 354.000000,144.211456 
	C354.000000,150.122940 354.000000,154.607712 354.000000,159.092468 
	C354.000000,163.688721 354.000000,168.284973 354.000000,172.677826 
	C357.376160,172.677826 360.117096,172.677826 363.000000,172.677826 
	C363.000000,167.537689 363.260010,162.700150 362.915863,157.905975 
	C362.651367,154.220612 364.422333,151.865829 367.455719,151.606735 
	C368.456146,151.521271 370.605835,155.474564 370.837769,157.724670 
	C371.356506,162.757172 371.000000,167.879883 371.000000,172.817047 
	C374.674927,172.817047 377.631165,172.817047 380.995758,172.817047 
	C380.995758,166.355087 381.398651,160.031021 380.842712,153.792404 
	C380.515961,150.125778 379.607086,145.656525 374.692078,145.100922 
	C370.701843,144.649826 366.443207,144.209457 363.010620,146.843155 
M893.000000,97.400177 
	C893.000000,92.643097 893.000000,87.886009 893.000000,83.172989 
	C895.674561,83.018059 897.756409,82.897461 899.717712,82.783844 
	C899.717712,79.996895 899.717712,77.588303 899.717712,75.155067 
	C897.354187,75.020271 895.269836,74.901405 893.229126,74.785019 
	C892.645386,64.986206 892.939148,64.534798 900.368896,65.457512 
	C900.481018,62.701168 901.782532,58.832638 900.482422,57.497532 
	C896.263184,53.164749 886.732544,56.274864 885.011414,62.237690 
	C884.217590,64.988068 884.383240,68.004715 883.971313,70.880219 
	C883.738159,72.508179 885.271057,75.240372 881.673035,75.058029 
	C881.702209,77.688232 881.731384,80.318428 881.760620,82.948631 
	C885.390381,82.847504 883.882935,85.627991 883.934692,87.202881 
	C884.107117,92.443916 884.000000,97.694153 884.000000,102.848480 
	C887.290833,102.848480 889.910095,102.848480 893.000000,102.848480 
	C893.000000,101.273964 893.000000,99.823586 893.000000,97.400177 
M501.969849,164.984375 
	C498.183350,165.329849 494.447845,165.166672 493.090393,160.808563 
	C492.099426,157.627014 493.587677,154.958450 496.382721,153.270782 
	C500.323730,150.891190 503.390076,152.663300 506.147491,155.610001 
	C506.406830,155.887146 507.036224,155.817978 507.907349,155.992386 
	C507.340942,152.100220 510.311737,147.413101 504.784576,145.325119 
	C493.113953,140.916290 482.556244,148.579376 483.000061,160.963104 
	C483.284424,168.897995 489.851044,173.339462 500.796326,172.999939 
	C507.799316,172.782715 508.124390,172.289734 507.949493,162.026474 
	C507.946167,161.832428 507.625153,161.643814 507.449432,161.457886 
	C505.886688,162.561707 504.323944,163.665527 501.969849,164.984375 
M377.053650,102.233398 
	C380.211060,102.579605 383.368469,102.925804 386.716614,103.292915 
	C386.716614,87.498505 386.716614,72.351326 386.716614,57.273270 
	C383.362152,57.273270 380.296875,57.273270 377.003571,57.273270 
	C377.003571,72.120193 377.003571,86.695045 377.053650,102.233398 
M784.000000,163.465881 
	C784.000000,166.576416 784.000000,169.686966 784.000000,172.723389 
	C787.625427,172.723389 790.699524,172.723389 793.725708,172.723389 
	C793.725708,157.370651 793.725708,142.296143 793.725708,127.278549 
	C790.370789,127.278549 787.296570,127.278549 784.000000,127.278549 
	C784.000000,139.196014 784.000000,150.836380 784.000000,163.465881 
M565.003540,101.269630 
	C568.124939,102.072227 571.246277,102.874825 574.705444,103.764267 
	C574.705444,87.475044 574.705444,72.327339 574.705444,57.285313 
	C571.338989,57.285313 568.272766,57.285313 565.000183,57.285313 
	C565.000183,71.815971 565.000183,86.062340 565.003540,101.269630 
M702.000000,77.500153 
	C702.000000,70.731049 702.000000,63.961945 702.000000,57.287056 
	C698.353882,57.287056 695.279297,57.287056 692.282471,57.287056 
	C692.282471,72.649368 692.282471,87.722939 692.282471,102.712997 
	C695.645996,102.712997 698.720581,102.712997 702.000000,102.712997 
	C702.000000,94.452011 702.000000,86.476059 702.000000,77.500153 
M427.868500,75.340569 
	C425.397858,75.227203 422.916382,74.909180 420.458649,75.039429 
	C413.495544,75.408440 407.215820,81.493073 407.007629,87.954803 
	C406.557312,101.930756 419.057312,105.230125 429.408051,101.973358 
	C430.519379,101.623680 431.613281,99.837082 431.890411,98.540718 
	C432.308411,96.585617 431.999390,94.475098 431.999390,92.150810 
	C424.927490,96.762718 421.944489,96.850708 418.378662,92.928299 
	C415.662231,89.940254 416.690216,86.779495 418.991455,84.686203 
	C423.685730,80.416084 427.892242,83.688103 431.999512,86.960312 
	C431.999512,84.161095 432.415649,81.734009 431.850128,79.562561 
	C431.485809,78.163628 429.680206,77.140038 427.868500,75.340569 
M822.249023,94.974136 
	C818.293579,97.157524 814.921204,95.739288 813.272644,92.206017 
	C812.347046,90.222122 812.728455,86.635170 814.030212,84.908180 
	C815.144104,83.430580 818.476135,82.942429 820.702698,83.180382 
	C822.879028,83.412956 824.897949,85.117828 827.000000,86.183517 
	C827.000000,84.692719 826.829712,83.010307 827.031982,81.373940 
	C827.638977,76.462982 824.986328,74.951546 820.684814,74.997169 
	C819.021423,75.014816 817.352600,74.915039 815.695007,75.014427 
	C806.877014,75.543106 799.758972,83.709030 803.028442,93.458252 
	C806.480652,103.752129 816.154053,104.508453 824.776001,101.921875 
	C825.753052,101.628769 826.694092,99.873360 826.903748,98.666107 
	C827.253723,96.650970 826.999207,94.530861 826.999207,92.150223 
	C825.371582,93.125740 824.153503,93.855812 822.249023,94.974136 
M717.000000,71.504303 
	C717.000000,66.733429 717.000000,61.962547 717.000000,57.285561 
	C713.691467,57.285561 710.952454,57.285561 708.281250,57.285561 
	C708.281250,72.648422 708.281250,87.724075 708.281250,102.714294 
	C711.310669,102.714294 714.045471,102.714294 717.000000,102.714294 
	C717.000000,92.454590 717.000000,82.478951 717.000000,71.504303 
M582.000244,68.605316 
	C582.000244,70.571785 582.000244,72.538254 582.000244,74.785416 
	C580.219788,74.942329 578.685730,75.077530 577.280396,75.201385 
	C577.280396,78.018326 577.280396,80.427452 577.280396,82.808029 
	C578.968811,82.967834 580.376587,83.101074 582.128906,83.266922 
	C582.128906,89.942558 582.128906,96.346909 582.128906,102.754074 
	C585.245544,102.754074 587.977173,102.754074 591.065796,102.754074 
	C591.065796,96.107269 591.065796,89.696083 591.065796,83.327461 
	C592.955139,83.045296 594.481506,82.817345 595.804077,82.619820 
	C595.804077,79.924835 595.804077,77.640923 595.804077,75.300041 
	C594.093506,75.050606 592.563782,74.827530 590.691406,74.554497 
	C590.691406,71.525238 590.691406,68.789627 590.691406,65.109177 
	C587.408752,66.074020 584.706421,66.868301 582.000244,68.605316 
M957.975891,79.118851 
	C958.363403,76.194901 957.247925,74.555885 954.145996,75.033020 
	C951.822754,75.390381 949.511658,76.582603 947.256653,76.438622 
	C944.338257,76.252274 941.481018,75.106491 938.319092,74.303070 
	C938.319092,84.547325 938.319092,93.715958 938.319092,102.688873 
	C941.375793,102.688873 944.107483,102.688873 947.000000,102.688873 
	C947.000000,98.416344 946.992676,94.453651 947.001648,90.490990 
	C947.015869,84.244492 948.445129,83.172913 954.900024,84.792961 
	C955.798889,83.189819 956.730469,81.528236 957.975891,79.118851 
M734.000000,163.466522 
	C734.000000,166.576767 734.000000,169.687012 734.000000,172.723846 
	C737.625183,172.723846 740.697266,172.723846 743.725708,172.723846 
	C743.725708,163.369843 743.725708,154.294754 743.725708,145.278183 
	C740.371033,145.278183 737.297058,145.278183 734.000000,145.278183 
	C734.000000,151.195572 734.000000,156.836777 734.000000,163.466522 
M469.000000,161.484528 
	C469.000000,165.259552 469.000000,169.034592 469.000000,172.718384 
	C472.301117,172.718384 475.039917,172.718384 477.721161,172.718384 
	C477.721161,163.357239 477.721161,154.280304 477.721161,145.282990 
	C474.694061,145.282990 471.956390,145.282990 469.000000,145.282990 
	C469.000000,150.540054 469.000000,155.516129 469.000000,161.484528 
M611.000000,162.477783 
	C611.000000,156.708786 611.000000,150.939789 611.000000,145.295593 
	C607.669678,145.295593 604.929749,145.295593 602.291992,145.295593 
	C602.291992,154.671646 602.291992,163.749298 602.291992,172.702301 
	C605.330994,172.702301 608.070557,172.702301 611.000000,172.702301 
	C611.000000,169.427795 611.000000,166.447113 611.000000,162.477783 
M402.000000,96.420242 
	C402.000000,89.360435 402.000000,82.300629 402.000000,75.241104 
	C398.749634,75.241104 396.024780,75.241104 393.347351,75.241104 
	C393.347351,84.639206 393.347351,93.792381 393.347351,102.663315 
	C396.427032,102.663315 399.155457,102.663315 402.000000,102.663315 
	C402.000000,100.684662 402.000000,99.040260 402.000000,96.420242 
M733.000000,82.561852 
	C733.000000,80.119789 733.000000,77.677727 733.000000,75.265518 
	C729.729797,75.265518 726.991455,75.265518 724.265442,75.265518 
	C724.265442,84.610992 724.265442,93.688354 724.265442,102.731339 
	C727.276123,102.731339 730.014587,102.731339 733.000000,102.731339 
	C733.000000,96.159004 733.000000,89.851913 733.000000,82.561852 
M611.091492,138.361603 
	C611.393799,137.646790 611.845642,136.957626 611.973389,136.212845 
	C612.636047,132.350143 609.711609,130.458710 607.029175,130.311752 
	C605.100708,130.206085 602.073242,132.340744 601.227783,134.232254 
	C599.757874,137.520676 602.407837,139.877609 605.408997,140.589203 
	C606.914001,140.946030 608.832764,139.557709 611.091492,138.361603 
M474.956604,140.560257 
	C476.303894,138.621918 478.551483,136.745728 478.691010,134.724045 
	C478.788666,133.308990 476.221680,130.892075 474.444550,130.415680 
	C472.931213,130.009995 470.404846,131.296387 469.101440,132.605576 
	C465.844574,135.876892 468.121613,139.422302 474.956604,140.560257 
M726.790283,70.968811 
	C730.442444,71.524826 733.276245,70.004112 733.771545,66.505066 
	C734.006226,64.847061 732.041809,61.444809 730.814270,61.316620 
	C728.396729,61.064186 724.734985,61.797882 723.541138,63.496487 
	C722.016785,65.665413 722.067566,69.328720 726.790283,70.968811 
M402.032501,69.432518 
	C403.813324,66.105164 403.869232,62.931370 400.123566,61.142162 
	C396.870239,59.588123 392.641968,61.458363 392.284790,64.568314 
	C392.099640,66.180664 393.077393,68.962059 394.270447,69.467720 
	C396.341675,70.345558 398.987762,69.866989 402.032501,69.432518 
M737.952332,130.564880 
	C733.095337,130.800659 733.386414,134.586823 734.252563,137.325256 
	C734.765259,138.946243 737.689392,140.722534 739.579224,140.779892 
	C742.596130,140.871475 744.033569,138.825104 744.166687,135.267334 
	C744.335999,130.742874 741.096191,131.055756 737.952332,130.564880 
z"/>
<path fill="#42729D" opacity="1.000000" stroke="none" 
	d="
M198.060379,63.018585 
	C201.287048,64.673599 202.143539,66.970009 202.092285,70.287727 
	C201.878860,84.104301 201.961182,97.926315 202.040710,111.745728 
	C202.054977,114.222954 201.665924,115.750679 199.071014,117.094536 
	C186.173248,123.774040 173.522766,130.931915 160.606216,137.573257 
	C158.671951,138.567810 155.347198,138.580551 153.418503,137.586655 
	C139.927917,130.634628 126.601547,123.359070 113.336891,115.981628 
	C112.143555,115.317917 111.112534,113.207893 111.097321,111.758102 
	C110.936745,96.446396 110.997894,81.132355 110.997894,65.796051 
	C126.019196,57.714558 140.920532,49.658905 155.894852,41.741291 
	C156.757660,41.285088 158.391663,41.622749 159.368256,42.147003 
	C172.169571,49.019005 184.917084,55.991253 198.060379,63.018585 
M137.369278,67.881424 
	C135.022308,69.143135 132.779449,70.686737 130.304108,71.600815 
	C126.545433,72.988777 125.582130,75.408035 125.732475,79.262093 
	C126.044022,87.248878 125.661713,95.262398 125.957291,103.250404 
	C126.020676,104.963615 127.332008,107.343567 128.780838,108.175003 
	C137.153076,112.979584 145.684448,117.520020 154.305511,121.865021 
	C155.760086,122.598122 158.227463,122.567451 159.692429,121.829140 
	C168.313354,117.484421 176.848267,112.951736 185.222931,108.152168 
	C186.673355,107.320923 187.994339,104.937744 188.052170,103.226677 
	C188.339127,94.737503 188.367477,86.226120 188.036194,77.740181 
	C187.964676,75.907906 186.469818,73.400818 184.888306,72.481491 
	C177.119446,67.965469 169.011124,64.035622 161.212723,59.567097 
	C158.047012,57.753109 155.581619,57.855469 152.526520,59.707275 
	C147.834946,62.551014 142.867126,64.939011 137.369278,67.881424 
z"/>
<path fill="#42729C" opacity="1.000000" stroke="none" 
	d="
M59.997814,175.000000 
	C59.997818,168.003143 60.238159,161.493759 59.900654,155.014481 
	C59.720650,151.558975 60.936981,149.554993 63.822296,148.020630 
	C76.939072,141.045395 89.992355,133.949936 103.157097,127.067230 
	C104.291008,126.474411 106.326881,126.641747 107.516457,127.267853 
	C121.334076,134.540436 135.094955,141.922897 148.778122,149.444962 
	C149.870941,150.045715 150.894257,151.890228 150.907166,153.167297 
	C151.055267,167.825378 151.056381,182.486069 150.906342,197.144119 
	C150.893005,198.448044 149.875366,200.332092 148.769257,200.944565 
	C135.338318,208.381485 121.706688,215.459579 108.345634,223.017105 
	C103.428688,225.798309 100.376991,221.878296 97.195923,220.344009 
	C85.476593,214.691513 74.147095,208.218445 62.794910,201.833664 
	C61.467964,201.087357 60.179443,198.998367 60.122410,197.484756 
	C59.846607,190.165329 59.997925,182.829819 59.997814,175.000000 
M117.326111,201.839844 
	C122.595505,199.009399 127.996811,196.389740 133.055969,193.223373 
	C134.625534,192.241028 136.116547,189.807816 136.187241,187.982422 
	C136.515213,179.514648 136.519302,171.019547 136.182068,162.552460 
	C136.109161,160.722321 134.578552,158.220078 132.985245,157.303268 
	C124.780785,152.582336 116.390503,148.170639 107.926170,143.928146 
	C106.458046,143.192276 104.000191,143.142105 102.549965,143.870773 
	C93.792946,148.270828 85.146179,152.900772 76.600449,157.699432 
	C75.346519,158.403549 74.120064,160.398407 74.083740,161.826645 
	C73.855515,170.800201 73.858070,179.785156 74.080437,188.759003 
	C74.115608,190.178482 75.313660,192.133484 76.550583,192.861923 
	C82.129501,196.147430 88.338593,198.499496 93.529755,202.275253 
	C101.573402,208.125732 108.975838,208.434143 117.326111,201.839844 
z"/>
<path fill="#41719C" opacity="1.000000" stroke="none" 
	d="
M61.992950,135.003784 
	C56.476562,139.197220 51.823204,139.255249 45.794441,135.637085 
	C33.658012,128.353409 20.844591,122.197807 8.001453,115.413521 
	C8.001453,99.666656 7.933065,83.697853 8.124083,67.732147 
	C8.140338,66.373474 9.582817,64.476204 10.875839,63.774117 
	C24.303595,56.483059 37.812988,49.340206 51.383057,42.317242 
	C52.533569,41.721813 54.553440,41.778282 55.716305,42.391373 
	C69.540176,49.679695 83.304512,57.083195 96.986023,64.634842 
	C98.037666,65.215309 98.902359,67.136787 98.914795,68.443893 
	C99.050987,82.757637 98.917885,97.073990 99.064445,111.387520 
	C99.096764,114.543312 97.754189,116.103737 95.133347,117.471115 
	C84.161217,123.195610 73.280144,129.094635 61.992950,135.003784 
M66.770058,116.247253 
	C71.752464,113.579346 76.850563,111.098511 81.648117,108.131683 
	C83.123871,107.219063 84.611214,105.007195 84.669090,103.340805 
	C84.969147,94.700279 84.970665,86.038033 84.666290,77.397789 
	C84.607758,75.736191 83.098625,73.472878 81.610138,72.622879 
	C73.385056,67.926003 65.030190,63.437271 56.542339,59.235703 
	C54.832687,58.389404 52.038612,58.398613 50.293720,59.203705 
	C44.567589,61.845737 39.342613,65.716057 33.467415,67.860619 
	C23.916540,71.346870 20.338806,77.289696 21.862972,87.361549 
	C22.798748,93.545265 20.057812,101.205254 22.834169,105.930801 
	C25.587944,110.617905 33.189030,112.457748 38.665821,115.543442 
	C39.245209,115.869873 39.905109,116.091866 40.410465,116.505493 
	C48.959999,123.503159 57.529037,123.743988 66.770058,116.247253 
z"/>
<path fill="#41719C" opacity="1.000000" stroke="none" 
	d="
M120.987381,9.998877 
	C123.946465,11.409429 126.658669,12.561980 129.063538,14.173259 
	C130.049942,14.834163 130.888672,16.474186 130.914154,17.687311 
	C131.078308,25.500822 131.184097,33.327362 130.851593,41.130131 
	C130.780045,42.808796 129.208496,45.031086 127.691483,45.935879 
	C120.974869,49.941891 114.067184,53.638168 107.116562,57.229614 
	C106.094017,57.757973 104.272789,57.515564 103.155167,56.958969 
	C96.001366,53.396248 88.847404,49.808647 81.924995,45.826771 
	C80.458580,44.983273 79.192101,42.500755 79.129883,40.727905 
	C78.838570,32.427361 79.000504,24.110910 79.000504,15.432322 
	C87.056587,11.284442 95.099709,7.025635 103.280304,3.049680 
	C104.608055,2.404361 106.793953,2.490631 108.154541,3.138691 
	C112.418739,5.169779 116.478065,7.631001 120.987381,9.998877 
M96.257217,37.115131 
	C97.534569,37.887226 98.815155,38.654030 100.088684,39.432381 
	C104.262917,41.983570 114.322502,39.396988 116.652214,35.170414 
	C117.940559,32.833088 116.862724,24.197584 115.015839,23.072165 
	C109.483223,19.700806 104.312859,16.451899 97.531731,21.528534 
	C92.550812,25.257456 91.002960,31.982697 96.257217,37.115131 
z"/>
<path fill="#41719C" opacity="1.000000" stroke="none" 
	d="
M11.979513,181.995453 
	C3.280634,179.494492 0.620441,173.929688 1.888052,165.573059 
	C2.530499,161.337784 2.322475,156.893478 1.907490,152.600876 
	C1.512613,148.516235 3.118846,146.352173 6.648062,144.649109 
	C12.530159,141.810669 18.290367,138.695999 23.956617,135.444458 
	C26.566280,133.946915 28.653099,134.117599 31.194677,135.563431 
	C38.292942,139.601425 45.525230,143.403809 52.997753,147.458267 
	C52.997753,156.327515 53.072201,165.305664 52.903606,174.279236 
	C52.882511,175.402039 51.837971,176.951874 50.824718,177.537445 
	C44.183075,181.375702 37.506187,185.178299 30.634592,188.575439 
	C28.932114,189.417099 26.186804,189.371552 24.412634,188.601196 
	C20.233761,186.786728 16.351379,184.289413 11.979513,181.995453 
M17.480108,155.307663 
	C13.864228,161.593430 15.443947,167.708084 21.475616,170.772293 
	C22.215706,171.148285 23.058119,171.401077 23.679182,171.919388 
	C26.163368,173.992493 28.440397,174.207901 31.147646,172.052383 
	C33.437943,170.228867 37.902149,169.307922 38.313168,167.341461 
	C39.110546,163.526459 39.229309,157.656830 36.940044,155.521225 
	C32.626595,151.497314 26.549109,147.944305 20.377789,153.779022 
	C19.798889,154.326355 18.920610,154.557022 17.480108,155.307663 
z"/>
<path fill="#41719C" opacity="1.000000" stroke="none" 
	d="
M157.022095,175.348511 
	C157.003326,167.752151 157.527252,160.542618 156.825165,153.454529 
	C156.310959,148.263107 158.932083,146.054169 162.664917,144.143555 
	C168.308197,141.255112 173.946472,138.333572 179.744965,135.785904 
	C181.482376,135.022537 184.097336,134.715485 185.708588,135.475296 
	C192.345337,138.604935 198.810928,142.119598 205.190033,145.754883 
	C206.462387,146.479965 207.832367,148.332184 207.874588,149.704132 
	C208.125336,157.852600 207.778275,166.020996 208.084900,174.165649 
	C208.257721,178.756531 204.240051,178.829025 201.974411,180.247040 
	C196.619080,183.598877 190.768005,186.168839 185.062439,188.941895 
	C183.969971,189.472839 182.288742,190.101440 181.449860,189.642273 
	C173.243698,185.150528 165.158661,180.437500 157.022095,175.348511 
M178.643188,152.164261 
	C175.270493,154.323242 171.006638,154.704300 170.688980,160.809952 
	C170.321060,167.881851 174.230927,169.924393 179.205307,172.129669 
	C182.602524,173.635727 193.614334,170.897095 194.343170,167.493408 
	C195.119186,163.869461 195.265030,159.231476 193.598343,156.174438 
	C191.237534,151.844269 182.935120,150.148209 178.643188,152.164261 
z"/>
<path fill="#000000" opacity="1.000000" stroke="none" 
	d="
M291.114380,164.000732 
	C296.936615,165.898453 299.831726,164.683762 304.275238,158.260620 
	C302.411469,158.161957 300.882599,158.047241 299.351807,158.009155 
	C297.715973,157.968445 296.078339,158.000000 294.227966,158.000000 
	C294.227966,155.284561 294.227966,152.875687 294.227966,150.230286 
	C301.051514,150.230286 307.799255,150.230286 314.524628,150.230286 
	C317.053406,160.616776 310.335388,170.322815 302.067108,172.893967 
	C290.288452,176.556686 277.901245,172.055344 273.889282,162.213486 
	C269.504578,151.457336 271.003510,140.288376 280.548828,134.243881 
	C290.293732,128.072998 304.282349,127.753181 313.441437,140.396210 
	C310.665833,141.945419 307.988403,143.531448 305.207245,144.907837 
	C304.705353,145.156235 303.418549,144.777283 303.100647,144.291245 
	C299.708466,139.104858 294.814117,138.925598 289.862335,140.818359 
	C285.715240,142.403549 283.127777,145.568314 282.920807,150.536011 
	C282.657959,156.844650 284.525940,161.579926 291.114380,164.000732 
z"/>
<path fill="#000000" opacity="1.000000" stroke="none" 
	d="
M492.998108,100.789642 
	C489.976562,102.103165 486.956696,102.936150 483.331848,103.936020 
	C483.331848,97.550201 483.331848,92.138641 483.331848,86.363800 
	C477.550903,86.363800 472.138458,86.363800 466.149292,86.363800 
	C466.149292,91.573631 466.149292,97.120209 466.149292,102.820915 
	C462.623474,102.820915 459.666931,102.820915 456.354431,102.820915 
	C456.354431,89.412712 456.354431,75.886902 456.354431,62.179085 
	C459.376617,62.179085 462.333130,62.179085 465.683899,62.179085 
	C465.683899,66.458572 465.683899,70.873436 465.683899,75.644516 
	C471.462677,75.644516 476.875031,75.644516 482.692566,75.644516 
	C482.692566,71.524323 482.692566,67.116287 482.692566,62.353157 
	C486.152039,62.353157 489.228180,62.353157 492.999786,62.353157 
	C492.999786,74.810028 492.999786,87.559570 492.998108,100.789642 
z"/>
<path fill="#000000" opacity="1.000000" stroke="none" 
	d="
M833.000488,154.213074 
	C834.975037,144.305115 846.660583,142.766846 852.996460,145.676071 
	C856.122314,145.369919 859.248230,145.063766 862.992737,144.697006 
	C862.992737,155.599594 863.317993,166.053421 862.823059,176.468262 
	C862.640320,180.312546 860.178833,184.003616 855.880127,184.986740 
	C845.374023,187.389542 833.960876,187.316055 833.133667,174.166794 
	C837.162659,174.280334 841.434998,172.363068 844.418091,177.455322 
	C845.076172,178.578751 849.731445,178.764343 851.228882,177.635101 
	C853.077881,176.240814 853.550842,173.021698 854.087036,170.356842 
	C848.225281,173.014099 842.759827,173.580643 837.825012,170.135941 
	C832.484375,166.408005 831.415771,160.792709 833.000488,154.213074 
M843.000122,160.512527 
	C844.508423,163.679947 846.460327,165.688370 850.426453,164.216705 
	C854.576782,162.676666 854.522034,159.535385 853.654541,156.238831 
	C852.872864,153.268219 850.607666,152.224960 847.591797,152.779831 
	C843.625610,153.509521 842.016846,155.770370 843.000122,160.512527 
z"/>
<path fill="#000000" opacity="1.000000" stroke="none" 
	d="
M701.996460,154.700134 
	C700.965637,153.385300 699.938049,152.504883 698.910400,151.624466 
	C697.940247,153.070129 696.226318,154.469650 696.133362,155.969711 
	C695.795288,161.420700 696.000000,166.905365 696.000000,172.688095 
	C693.101746,172.688095 690.364868,172.688095 687.310669,172.688095 
	C687.310669,163.806305 687.310669,154.741821 687.310669,144.626877 
	C690.232666,145.162689 693.162415,145.794922 696.124084,146.185928 
	C697.029053,146.305389 698.010010,145.689743 698.976074,145.534821 
	C703.211975,144.855438 707.574341,143.634262 710.567017,147.601883 
	C712.844421,146.704407 714.970520,145.238266 717.175781,145.107452 
	C726.205811,144.571808 727.999084,146.473480 727.999878,155.633774 
	C728.000366,161.258484 728.000000,166.883194 728.000000,172.751495 
	C724.646179,172.751495 721.578247,172.751495 717.999939,172.751495 
	C717.999939,166.808243 718.125793,160.870926 717.898010,154.947220 
	C717.850159,153.701904 716.502991,152.506577 715.754517,151.288208 
	C714.503723,152.506668 712.261292,153.657639 712.172974,154.955215 
	C711.779602,160.735291 712.002197,166.557266 712.002197,172.681610 
	C708.785217,172.681610 705.713135,172.681610 701.999573,172.681610 
	C701.999573,166.971130 701.999573,161.052826 701.996460,154.700134 
z"/>
<path fill="#000000" opacity="1.000000" stroke="none" 
	d="
M351.000000,63.082001 
	C351.000000,68.212212 351.000000,72.856621 351.000000,77.572762 
	C358.114227,73.678741 366.015198,74.061829 369.319061,78.930870 
	C373.797333,85.530609 374.345245,93.236801 368.711578,99.744156 
	C364.849182,104.205620 357.703033,104.399055 351.682709,100.613892 
	C349.013763,105.335121 344.727203,101.839310 341.233398,103.168030 
	C341.233398,87.633087 341.233398,72.566566 341.233398,57.249470 
	C344.354340,57.249470 347.424377,57.249470 351.000000,57.249470 
	C351.000000,59.044918 351.000000,60.820560 351.000000,63.082001 
M351.018494,86.995110 
	C351.018555,88.314461 350.476746,90.084869 351.125488,90.864227 
	C352.738983,92.802567 354.689850,95.074707 356.912140,95.655212 
	C358.192749,95.989731 360.741119,93.610924 361.873444,91.895416 
	C363.798584,88.978867 362.435211,85.965462 360.010803,84.094376 
	C356.561066,81.431976 353.645020,83.257210 351.018494,86.995110 
z"/>
<path fill="#000000" opacity="1.000000" stroke="none" 
	d="
M454.187500,172.967545 
	C453.472443,167.699097 453.270935,162.456909 452.983002,157.219467 
	C452.866364,155.097946 453.957184,152.101349 450.217743,152.044189 
	C446.611237,151.989059 446.142426,154.857498 446.050629,157.488434 
	C445.877319,162.456802 446.000549,167.435516 446.000549,172.704163 
	C443.069733,172.704163 440.331787,172.704163 436.999969,172.704163 
	C436.999969,167.737656 437.276245,162.619308 436.858673,157.558197 
	C436.700287,155.638657 435.117401,152.426773 433.882263,152.276108 
	C430.476776,151.860779 429.904938,154.722610 429.970093,157.675598 
	C430.079468,162.633209 430.000000,167.594971 430.000000,172.773727 
	C426.934296,172.773727 424.199646,172.773727 421.229980,172.773727 
	C421.229980,163.613571 421.229980,154.542343 421.229980,144.982422 
	C424.340454,145.839935 428.115448,142.998764 430.473633,147.336609 
	C434.940979,144.422058 439.742035,143.194473 444.737854,147.144577 
	C445.084686,147.418777 445.952362,147.071350 446.568665,146.961456 
	C450.174805,146.318527 453.874237,144.892914 457.342621,145.326797 
	C459.109833,145.547882 461.489868,148.952942 461.808319,151.174576 
	C462.807159,158.143341 462.958649,165.233551 463.487366,172.995712 
	C460.160614,172.995712 457.413483,172.995712 454.187500,172.967545 
z"/>
<path fill="#000000" opacity="1.000000" stroke="none" 
	d="
M539.066772,131.000000 
	C545.864990,131.000000 552.169922,131.000000 558.735596,131.000000 
	C558.735596,133.993301 558.735596,136.731201 558.735596,139.874237 
	C553.354370,139.874237 547.932861,139.874237 542.261475,139.874237 
	C542.261475,142.330292 542.261475,144.401566 542.261475,146.872375 
	C547.299011,146.872375 552.390991,146.872375 557.735901,146.872375 
	C557.735901,149.658066 557.735901,152.063950 557.735901,154.872284 
	C552.696655,154.872284 547.606506,154.872284 542.264099,154.872284 
	C542.264099,157.992889 542.264099,160.731049 542.264099,163.873138 
	C547.646973,163.873138 553.066223,163.873138 558.737305,163.873138 
	C558.737305,166.996216 558.737305,169.734192 558.737305,172.739365 
	C550.012512,172.739365 541.270264,172.739365 532.262939,172.739365 
	C532.262939,158.999237 532.262939,145.262878 532.262939,131.000000 
	C534.363647,131.000000 536.468567,131.000000 539.066772,131.000000 
z"/>
<path fill="#000000" opacity="1.000000" stroke="none" 
	d="
M578.130737,172.015259 
	C576.970886,171.418808 576.209229,170.867050 574.967041,169.967239 
	C574.967041,175.192963 574.967041,179.906815 574.967041,184.801819 
	C571.546570,184.801819 568.479736,184.801819 565.206055,184.801819 
	C565.206055,171.573242 565.206055,158.517532 565.206055,144.959869 
	C568.630981,145.993866 572.709900,142.889374 575.607849,147.232056 
	C582.389587,142.675308 587.152588,142.896545 592.367859,147.788605 
	C597.836182,152.918015 598.500549,161.512665 594.566284,167.857239 
	C591.160339,173.349823 584.982788,174.744705 578.130737,172.015259 
M580.601562,164.997681 
	C584.913208,164.689194 587.461670,162.261932 586.835266,158.073380 
	C586.320129,154.628616 583.781189,151.829559 579.859863,153.173065 
	C577.927795,153.835007 575.755249,156.063721 575.211365,158.008484 
	C574.252380,161.437683 576.673706,163.681641 580.601562,164.997681 
z"/>
<path fill="#000000" opacity="1.000000" stroke="none" 
	d="
M630.731567,145.000031 
	C633.399780,145.735718 635.636353,146.471375 637.946960,147.231415 
	C637.946960,140.904877 637.946960,134.301514 637.946960,127.349487 
	C640.829895,127.349487 643.569092,127.349487 646.656433,127.349487 
	C646.656433,142.247086 646.656433,157.431320 646.656433,173.046234 
	C643.582520,172.208679 639.786682,174.800720 637.156860,170.549896 
	C631.665894,173.561966 625.568176,175.039658 619.967102,169.438278 
	C614.965332,164.436234 614.618286,158.159317 617.183594,152.251175 
	C619.450867,147.029388 624.004700,143.937286 630.731567,145.000031 
M633.218628,164.998596 
	C637.158691,163.771286 639.003540,160.764572 637.434937,157.243576 
	C636.490723,155.124374 633.082520,152.456009 631.297668,152.790283 
	C629.235718,153.176437 626.551025,156.449692 626.276672,158.727173 
	C625.854187,162.234619 627.816589,165.389862 633.218628,164.998596 
z"/>
<path fill="#000000" opacity="1.000000" stroke="none" 
	d="
M662.999390,68.005981 
	C664.528259,64.817322 666.022278,62.011761 667.807068,58.660027 
	C675.261963,73.563004 682.556213,88.144867 689.935242,102.896133 
	C685.466309,102.896133 681.486816,102.896133 677.542175,102.896133 
	C675.148560,95.521271 669.498291,92.606644 662.228638,95.087852 
	C661.361572,95.383789 660.282776,96.606644 660.222229,97.464752 
	C659.858093,102.628510 656.699890,103.458267 652.407349,103.033211 
	C650.437073,102.838104 648.431458,103.000000 645.466309,103.000000 
	C651.477600,91.109779 657.221008,79.749428 662.999390,68.005981 
M670.128357,86.970673 
	C669.593567,84.333031 669.058777,81.695389 668.523987,79.057747 
	C668.067810,79.143356 667.611572,79.228966 667.155334,79.314575 
	C666.178040,81.795769 665.200684,84.276962 664.128967,86.997864 
	C666.024048,86.997864 667.658081,86.997864 670.128357,86.970673 
z"/>
<path fill="#000000" opacity="1.000000" stroke="none" 
	d="
M284.000122,92.163879 
	C284.000000,95.934784 284.000000,99.225258 284.000000,102.755936 
	C280.642639,102.755936 277.577393,102.755936 274.253021,102.755936 
	C274.253021,89.356598 274.253021,75.980209 274.253021,61.229301 
	C282.299347,62.087646 290.444550,62.288406 298.242279,64.037933 
	C302.950623,65.094307 305.904419,71.725159 304.906403,76.247833 
	C303.329071,83.396072 300.561279,86.737579 294.954865,87.958260 
	C292.287140,88.539108 289.467773,88.452164 286.824677,89.104004 
	C285.737274,89.372177 284.933197,90.789078 284.000122,92.163879 
M293.999756,75.549637 
	C292.704376,70.508141 290.399811,69.354874 284.269531,70.611687 
	C284.269531,73.714706 284.269531,76.789154 284.269531,80.144302 
	C287.998627,79.530197 292.281952,81.448776 293.999756,75.549637 
z"/>
<path fill="#000000" opacity="1.000000" stroke="none" 
	d="
M614.743164,82.337479 
	C610.648010,81.680199 608.898071,83.331459 608.974670,87.165916 
	C609.076965,92.287811 609.000000,97.413277 609.000000,102.765533 
	C605.617737,102.765533 602.549805,102.765533 599.000000,102.765533 
	C599.000000,95.107384 599.000000,87.507790 599.000000,79.908203 
	C599.000000,72.448669 599.000000,64.989128 599.000000,57.266258 
	C602.318970,57.266258 605.388123,57.266258 608.778320,57.266258 
	C608.778320,63.654518 608.778320,70.081291 608.778320,76.149208 
	C611.894409,75.489784 614.882629,74.074646 617.640259,74.433105 
	C623.814575,75.235695 625.946960,78.305374 625.991394,84.782982 
	C626.032104,90.729187 626.000000,96.675888 626.000000,102.806770 
	C622.534607,102.806770 619.467529,102.806770 616.491211,102.806770 
	C616.009094,95.947495 615.540771,89.285004 614.743164,82.337479 
z"/>
<path fill="#000000" opacity="1.000000" stroke="none" 
	d="
M345.792450,160.999908 
	C339.998413,161.000000 334.683319,161.000000 329.354340,161.000000 
	C329.639496,165.070923 333.416107,167.745209 336.631714,165.530136 
	C340.815521,162.648163 344.611359,162.888901 349.033081,164.548752 
	C347.852448,169.172791 344.298157,171.307449 340.131989,172.294022 
	C331.350494,174.373566 322.650909,173.063583 319.796753,164.301453 
	C316.237915,153.375870 322.521423,144.363663 333.591583,144.896042 
	C343.745087,145.384323 349.547485,149.906433 348.886749,158.245468 
	C348.809021,159.226486 347.180847,160.084671 345.792450,160.999908 
M329.241333,155.731552 
	C332.332306,155.731552 335.423248,155.731552 338.514221,155.731552 
	C337.395355,153.606506 335.672516,151.397827 333.836761,151.299606 
	C332.306915,151.217773 330.644623,153.611908 329.241333,155.731552 
z"/>
<path fill="#000000" opacity="1.000000" stroke="none" 
	d="
M680.472351,150.991394 
	C681.321533,154.262085 681.866272,157.273239 682.510925,160.836746 
	C675.383057,160.836746 668.814514,160.836746 662.199890,160.836746 
	C662.752075,165.135605 666.560059,167.729706 669.715454,165.495087 
	C673.889893,162.538727 677.665710,162.969437 682.058411,164.593918 
	C680.790039,169.166519 677.219360,171.065201 673.126892,172.372467 
	C663.966736,175.298523 654.600403,171.625244 652.520569,163.966141 
	C649.665222,153.451584 654.915710,144.679382 666.481140,144.831268 
	C672.206604,144.906464 676.789062,145.993240 680.472351,150.991394 
M663.051453,155.981201 
	C665.862549,155.981201 668.673645,155.981201 671.484802,155.981201 
	C671.712341,155.634613 671.939941,155.288025 672.167480,154.941437 
	C670.279541,153.629837 668.428162,151.398056 666.491089,151.320953 
	C665.134949,151.266953 663.661621,154.156067 663.051453,155.981201 
z"/>
<path fill="#000000" opacity="1.000000" stroke="none" 
	d="
M930.824585,97.507889 
	C925.162720,104.241241 918.011902,103.989281 910.884888,102.221680 
	C905.842651,100.971115 902.532410,97.326340 902.035828,91.889481 
	C901.477539,85.776367 902.201599,80.091965 908.586182,76.949982 
	C914.477905,74.050568 920.411682,73.884995 926.193481,77.052238 
	C931.358215,79.881439 933.563721,84.519798 932.931396,90.298439 
	C932.676758,92.624985 931.657593,94.867882 930.824585,97.507889 
M912.042297,92.369453 
	C913.775269,95.329926 916.655029,95.669243 919.347595,94.704865 
	C920.838745,94.170822 922.810364,92.089005 922.759644,90.774490 
	C922.669617,88.438934 921.760437,85.547440 920.127075,84.060555 
	C918.992554,83.027832 915.026855,83.127602 914.180054,84.193848 
	C912.701355,86.055801 912.650391,89.051636 912.042297,92.369453 
z"/>
<path fill="#000000" opacity="1.000000" stroke="none" 
	d="
M860.961304,89.922653 
	C854.366150,90.700340 847.804138,91.012985 841.241760,91.318680 
	C842.769470,96.127777 847.051270,98.163055 850.647339,94.865585 
	C854.753113,91.100853 857.493225,94.872520 861.145142,94.671585 
	C857.643250,102.248062 848.230957,105.570198 840.155212,102.655968 
	C833.762573,100.349152 829.635620,93.080925 831.103760,86.715157 
	C833.187683,77.679634 839.636414,73.534050 850.156006,75.081459 
	C856.094666,75.955009 861.646057,78.436684 860.961304,89.922653 
M843.021240,82.479027 
	C842.419434,83.575684 841.817566,84.672333 841.330994,85.559052 
	C844.643005,85.559052 847.800598,85.559052 851.406311,85.559052 
	C849.347595,82.072868 847.048889,80.752998 843.021240,82.479027 
z"/>
<path fill="#000000" opacity="1.000000" stroke="none" 
	d="
M527.683899,90.978523 
	C521.232300,90.997307 515.251648,90.997307 509.203430,90.997307 
	C510.592743,96.009872 514.863525,98.244324 518.046875,95.173660 
	C522.199707,91.167847 525.341003,94.230080 529.112610,95.081352 
	C524.473999,103.463539 513.847534,105.960968 505.184235,101.041176 
	C498.754517,97.389801 496.840240,87.881882 501.002899,80.812927 
	C504.838470,74.299362 515.823242,73.614090 522.335510,76.201004 
	C527.576538,78.282928 529.979309,85.074043 527.683899,90.978523 
M514.413574,82.000145 
	C512.496399,82.776093 510.579285,83.552040 508.662140,84.327988 
	C508.847992,84.757507 509.033844,85.187019 509.219696,85.616539 
	C512.442444,85.616539 515.665161,85.616539 518.887939,85.616539 
	C519.017883,85.293793 519.147888,84.971046 519.277893,84.648293 
	C517.931091,83.766083 516.584290,82.883873 514.413574,82.000145 
z"/>
<path fill="#000000" opacity="1.000000" stroke="none" 
	d="
M800.163574,166.488037 
	C796.794373,158.152161 798.178528,151.884247 803.078979,147.898499 
	C808.073608,143.836136 820.777649,144.201431 825.364807,148.612137 
	C830.456970,153.508362 829.762634,159.407410 828.478943,164.662735 
	C827.187378,169.950317 822.010010,172.372467 816.467407,173.005371 
	C810.009399,173.742813 804.487915,172.078705 800.163574,166.488037 
M808.025085,160.140839 
	C809.793518,161.760345 811.347900,164.349152 813.375122,164.796768 
	C817.542114,165.716873 819.830078,162.233185 819.672119,158.900894 
	C819.575439,156.860382 816.760620,153.768295 814.652405,153.253311 
	C810.474609,152.232803 807.910645,154.757401 808.025085,160.140839 
z"/>
<path fill="#000000" opacity="1.000000" stroke="none" 
	d="
M752.783569,169.292984 
	C748.378967,164.598114 747.156250,158.097153 749.825439,152.749161 
	C752.441345,147.508148 756.786072,145.212769 762.775085,144.886795 
	C771.470947,144.413498 776.984985,148.068924 779.280273,155.487457 
	C781.554077,162.836319 776.206543,171.412796 768.806580,172.799835 
	C763.469604,173.800232 757.677673,173.655579 752.783569,169.292984 
M761.546936,164.070694 
	C763.741455,163.840469 767.071228,164.380432 767.869873,163.203201 
	C769.131104,161.344223 769.561890,157.961624 768.692932,155.930313 
	C768.032104,154.385651 764.767456,153.159851 762.733276,153.259720 
	C761.218506,153.334076 758.748291,155.664856 758.620911,157.154678 
	C758.433167,159.350647 759.950928,161.692459 761.546936,164.070694 
z"/>
<path fill="#000000" opacity="1.000000" stroke="none" 
	d="
M387.612640,167.105194 
	C381.845306,156.474945 387.252716,147.211014 394.972870,145.579330 
	C400.614044,144.387024 406.329437,143.997009 411.311615,147.861404 
	C415.724915,151.284546 417.972870,158.698792 415.783051,164.448029 
	C413.851288,169.519760 409.503082,172.266220 404.240326,172.925430 
	C398.016937,173.704956 392.077759,172.938889 387.612640,167.105194 
M395.927826,161.450745 
	C397.770325,162.632156 399.706360,164.854492 401.428833,164.699753 
	C403.122192,164.547623 405.412231,162.220383 405.941559,160.409500 
	C406.469757,158.602310 405.777893,155.541626 404.442535,154.339722 
	C403.116119,153.145844 399.893921,152.706848 398.269623,153.502228 
	C395.630432,154.794586 393.889832,157.464783 395.927826,161.450745 
z"/>
<path fill="#000000" opacity="1.000000" stroke="none" 
	d="
M738.191589,99.510620 
	C735.129639,88.549835 739.486633,85.477112 755.677734,86.688911 
	C754.482117,82.368927 752.032959,80.584503 748.167175,82.531853 
	C742.827148,85.221794 740.487976,83.377510 739.301880,77.850121 
	C746.272278,74.342964 753.604431,73.135742 760.878906,77.144562 
	C762.789673,78.197548 764.638367,81.069107 764.814209,83.243134 
	C765.333008,89.656975 764.999451,96.139778 764.999451,103.148209 
	C761.639465,102.079605 757.760620,105.111763 755.506409,100.574448 
	C749.261963,104.312271 743.341370,104.140678 738.191589,99.510620 
M751.468994,91.999992 
	C749.981323,92.807510 748.493713,93.615028 747.006042,94.422562 
	C747.793823,95.278442 748.441833,96.623123 749.396301,96.895889 
	C751.964417,97.629860 754.346680,95.497406 755.258972,92.000000 
	C754.259094,92.000000 753.278931,92.000000 751.468994,91.999992 
z"/>
<path fill="#000000" opacity="1.000000" stroke="none" 
	d="
M873.613159,145.000610 
	C875.034912,145.840240 876.435852,146.487000 876.927856,147.553192 
	C878.651184,151.287781 880.061218,155.166977 881.963196,159.924011 
	C883.588074,155.895004 885.195984,152.694061 886.158325,149.309555 
	C887.204834,145.629105 889.263306,144.360123 892.911133,144.960617 
	C894.366211,145.200134 895.893738,145.000000 897.977356,145.000000 
	C892.087646,158.398102 886.325989,171.504974 880.461365,184.846146 
	C877.628540,184.846146 874.498169,184.846146 870.982605,184.846146 
	C871.359619,183.824829 871.488342,182.870331 871.993286,182.198669 
	C879.588623,172.096710 874.184204,163.146729 869.588928,154.103851 
	C868.221924,151.413788 866.949829,148.675476 865.169678,145.000076 
	C868.421692,145.000076 870.798584,145.000076 873.613159,145.000610 
z"/>
<path fill="#000000" opacity="1.000000" stroke="none" 
	d="
M533.201172,89.464813 
	C538.209961,84.628830 543.824707,85.742592 549.434326,86.819756 
	C549.604065,81.243279 547.764709,80.819984 536.617676,84.108818 
	C535.647156,82.107285 534.642517,80.035454 533.000610,76.649338 
	C539.313782,76.039612 544.687988,75.221230 550.079651,75.082962 
	C555.611511,74.941124 558.980469,78.669563 558.996033,84.164726 
	C559.013367,90.296600 559.000000,96.428551 559.000000,103.709450 
	C555.566772,102.878372 552.680420,101.735207 549.748474,101.602875 
	C547.146606,101.485451 544.512085,102.628769 541.860474,102.973404 
	C534.630432,103.913124 529.386658,98.579964 533.201172,89.464813 
M543.912598,92.001022 
	C543.007080,92.840126 542.101501,93.679230 541.195984,94.518341 
	C542.348389,95.344795 543.825439,97.091377 544.590942,96.821274 
	C546.697327,96.078033 548.505493,94.489601 550.431641,93.235565 
	C550.189514,92.823738 549.947327,92.411903 549.705200,92.000076 
	C548.051880,92.000076 546.398560,92.000076 543.912598,92.001022 
z"/>
<path fill="#000000" opacity="1.000000" stroke="none" 
	d="
M317.998108,77.209221 
	C317.999847,82.345291 318.231659,87.017212 317.915344,91.651718 
	C317.717621,94.548729 319.250427,96.881897 321.289551,96.497147 
	C323.115051,96.152695 325.551331,93.335068 325.786591,91.376610 
	C326.413452,86.157654 325.999756,80.813705 325.999756,75.261917 
	C328.993713,75.261917 331.727997,75.261917 334.734375,75.261917 
	C334.734375,84.296501 334.734375,93.359909 334.734375,102.867836 
	C331.624023,102.126442 327.707703,105.364418 325.344025,100.363670 
	C321.626953,104.378319 317.237488,104.199821 312.464996,102.090485 
	C307.923126,100.083046 307.992950,96.188652 307.998138,92.223564 
	C308.005493,86.610901 308.000000,80.998222 308.000000,74.168625 
	C311.742310,75.127235 314.869385,75.928246 317.998108,77.209221 
z"/>
<path fill="#000000" opacity="1.000000" stroke="none" 
	d="
M779.289612,75.112518 
	C779.869263,76.017151 780.034912,76.822273 780.165405,77.456444 
	C782.019409,76.650734 783.848511,75.371986 785.822937,75.081757 
	C794.247192,73.843430 797.990356,77.260963 797.998962,85.837799 
	C798.004456,91.321823 798.000000,96.805870 798.000000,102.644806 
	C794.852051,102.644806 791.781311,102.644806 788.000000,102.644806 
	C788.000000,97.717796 788.038818,92.471420 787.982361,87.226082 
	C787.957031,84.877373 788.820007,81.995483 784.717834,81.959702 
	C780.761963,81.925186 780.170349,84.653366 780.056396,87.481544 
	C779.856323,92.445526 780.000488,97.423378 780.000488,102.697006 
	C777.084961,102.697006 774.348022,102.697006 771.302124,102.697006 
	C771.302124,93.784737 771.302124,84.718666 771.302124,75.013016 
	C773.710754,75.013016 776.293213,75.013016 779.289612,75.112518 
z"/>
<path fill="#000000" opacity="1.000000" stroke="none" 
	d="
M363.100647,147.243378 
	C366.443207,144.209457 370.701843,144.649826 374.692078,145.100922 
	C379.607086,145.656525 380.515961,150.125778 380.842712,153.792404 
	C381.398651,160.031021 380.995758,166.355087 380.995758,172.817047 
	C377.631165,172.817047 374.674927,172.817047 371.000000,172.817047 
	C371.000000,167.879883 371.356506,162.757172 370.837769,157.724670 
	C370.605835,155.474564 368.456146,151.521271 367.455719,151.606735 
	C364.422333,151.865829 362.651367,154.220612 362.915863,157.905975 
	C363.260010,162.700150 363.000000,167.537689 363.000000,172.677826 
	C360.117096,172.677826 357.376160,172.677826 354.000000,172.677826 
	C354.000000,168.284973 354.000000,163.688721 354.000000,159.092468 
	C354.000000,154.607712 354.000000,150.122940 354.000000,144.211456 
	C357.324707,145.182495 360.167664,146.012833 363.100647,147.243378 
z"/>
<path fill="#000000" opacity="1.000000" stroke="none" 
	d="
M893.000000,97.886688 
	C893.000000,99.823586 893.000000,101.273964 893.000000,102.848480 
	C889.910095,102.848480 887.290833,102.848480 884.000000,102.848480 
	C884.000000,97.694153 884.107117,92.443916 883.934692,87.202881 
	C883.882935,85.627991 885.390381,82.847504 881.760620,82.948631 
	C881.731384,80.318428 881.702209,77.688232 881.673035,75.058029 
	C885.271057,75.240372 883.738159,72.508179 883.971313,70.880219 
	C884.383240,68.004715 884.217590,64.988068 885.011414,62.237690 
	C886.732544,56.274864 896.263184,53.164749 900.482422,57.497532 
	C901.782532,58.832638 900.481018,62.701168 900.368896,65.457512 
	C892.939148,64.534798 892.645386,64.986206 893.229126,74.785019 
	C895.269836,74.901405 897.354187,75.020271 899.717712,75.155067 
	C899.717712,77.588303 899.717712,79.996895 899.717712,82.783844 
	C897.756409,82.897461 895.674561,83.018059 893.000000,83.172989 
	C893.000000,87.886009 893.000000,92.643097 893.000000,97.886688 
z"/>
<path fill="#000000" opacity="1.000000" stroke="none" 
	d="
M502.365540,164.876862 
	C504.323944,163.665527 505.886688,162.561707 507.450897,161.455276 
	C507.625153,161.643814 507.946167,161.832428 507.949493,162.026474 
	C508.124390,172.289734 507.799316,172.782715 500.796326,172.999939 
	C489.851044,173.339462 483.284424,168.897995 483.000061,160.963104 
	C482.556244,148.579376 493.113953,140.916290 504.784576,145.325119 
	C510.311737,147.413101 507.340942,152.100220 507.907349,155.992386 
	C507.036224,155.817978 506.406830,155.887146 506.147491,155.610001 
	C503.390076,152.663300 500.323730,150.891190 496.382721,153.270782 
	C493.587677,154.958450 492.099426,157.627014 493.090393,160.808563 
	C494.447845,165.166672 498.183350,165.329849 502.365540,164.876862 
z"/>
<path fill="#000000" opacity="1.000000" stroke="none" 
	d="
M377.028625,101.751648 
	C377.003571,86.695045 377.003571,72.120193 377.003571,57.273270 
	C380.296875,57.273270 383.362152,57.273270 386.716614,57.273270 
	C386.716614,72.351326 386.716614,87.498505 386.716614,103.292915 
	C383.368469,102.925804 380.211060,102.579605 377.028625,101.751648 
z"/>
<path fill="#000000" opacity="1.000000" stroke="none" 
	d="
M784.000000,162.971313 
	C784.000000,150.836380 784.000000,139.196014 784.000000,127.278549 
	C787.296570,127.278549 790.370789,127.278549 793.725708,127.278549 
	C793.725708,142.296143 793.725708,157.370651 793.725708,172.723389 
	C790.699524,172.723389 787.625427,172.723389 784.000000,172.723389 
	C784.000000,169.686966 784.000000,166.576416 784.000000,162.971313 
z"/>
<path fill="#000000" opacity="1.000000" stroke="none" 
	d="
M565.001831,100.789169 
	C565.000183,86.062340 565.000183,71.815971 565.000183,57.285313 
	C568.272766,57.285313 571.338989,57.285313 574.705444,57.285313 
	C574.705444,72.327339 574.705444,87.475044 574.705444,103.764267 
	C571.246277,102.874825 568.124939,102.072227 565.001831,100.789169 
z"/>
<path fill="#000000" opacity="1.000000" stroke="none" 
	d="
M702.000000,78.000137 
	C702.000000,86.476059 702.000000,94.452011 702.000000,102.712997 
	C698.720581,102.712997 695.645996,102.712997 692.282471,102.712997 
	C692.282471,87.722939 692.282471,72.649368 692.282471,57.287056 
	C695.279297,57.287056 698.353882,57.287056 702.000000,57.287056 
	C702.000000,63.961945 702.000000,70.731049 702.000000,78.000137 
z"/>
<path fill="#000000" opacity="1.000000" stroke="none" 
	d="
M428.194519,75.644394 
	C429.680206,77.140038 431.485809,78.163628 431.850128,79.562561 
	C432.415649,81.734009 431.999512,84.161095 431.999512,86.960312 
	C427.892242,83.688103 423.685730,80.416084 418.991455,84.686203 
	C416.690216,86.779495 415.662231,89.940254 418.378662,92.928299 
	C421.944489,96.850708 424.927490,96.762718 431.999390,92.150810 
	C431.999390,94.475098 432.308411,96.585617 431.890411,98.540718 
	C431.613281,99.837082 430.519379,101.623680 429.408051,101.973358 
	C419.057312,105.230125 406.557312,101.930756 407.007629,87.954803 
	C407.215820,81.493073 413.495544,75.408440 420.458649,75.039429 
	C422.916382,74.909180 425.397858,75.227203 428.194519,75.644394 
z"/>
<path fill="#000000" opacity="1.000000" stroke="none" 
	d="
M822.592163,94.780014 
	C824.153503,93.855812 825.371582,93.125740 826.999207,92.150223 
	C826.999207,94.530861 827.253723,96.650970 826.903748,98.666107 
	C826.694092,99.873360 825.753052,101.628769 824.776001,101.921875 
	C816.154053,104.508453 806.480652,103.752129 803.028442,93.458252 
	C799.758972,83.709030 806.877014,75.543106 815.695007,75.014427 
	C817.352600,74.915039 819.021423,75.014816 820.684814,74.997169 
	C824.986328,74.951546 827.638977,76.462982 827.031982,81.373940 
	C826.829712,83.010307 827.000000,84.692719 827.000000,86.183517 
	C824.897949,85.117828 822.879028,83.412956 820.702698,83.180382 
	C818.476135,82.942429 815.144104,83.430580 814.030212,84.908180 
	C812.728455,86.635170 812.347046,90.222122 813.272644,92.206017 
	C814.921204,95.739288 818.293579,97.157524 822.592163,94.780014 
z"/>
<path fill="#000000" opacity="1.000000" stroke="none" 
	d="
M717.000000,72.003807 
	C717.000000,82.478951 717.000000,92.454590 717.000000,102.714294 
	C714.045471,102.714294 711.310669,102.714294 708.281250,102.714294 
	C708.281250,87.724075 708.281250,72.648422 708.281250,57.285561 
	C710.952454,57.285561 713.691467,57.285561 717.000000,57.285561 
	C717.000000,61.962547 717.000000,66.733429 717.000000,72.003807 
z"/>
<path fill="#000000" opacity="1.000000" stroke="none" 
	d="
M582.002197,68.133949 
	C584.706421,66.868301 587.408752,66.074020 590.691406,65.109177 
	C590.691406,68.789627 590.691406,71.525238 590.691406,74.554497 
	C592.563782,74.827530 594.093506,75.050606 595.804077,75.300041 
	C595.804077,77.640923 595.804077,79.924835 595.804077,82.619820 
	C594.481506,82.817345 592.955139,83.045296 591.065796,83.327461 
	C591.065796,89.696083 591.065796,96.107269 591.065796,102.754074 
	C587.977173,102.754074 585.245544,102.754074 582.128906,102.754074 
	C582.128906,96.346909 582.128906,89.942558 582.128906,83.266922 
	C580.376587,83.101074 578.968811,82.967834 577.280396,82.808029 
	C577.280396,80.427452 577.280396,78.018326 577.280396,75.201385 
	C578.685730,75.077530 580.219788,74.942329 582.000244,74.785416 
	C582.000244,72.538254 582.000244,70.571785 582.002197,68.133949 
z"/>
<path fill="#000000" opacity="1.000000" stroke="none" 
	d="
M957.818970,79.492752 
	C956.730469,81.528236 955.798889,83.189819 954.900024,84.792961 
	C948.445129,83.172913 947.015869,84.244492 947.001648,90.490990 
	C946.992676,94.453651 947.000000,98.416344 947.000000,102.688873 
	C944.107483,102.688873 941.375793,102.688873 938.319092,102.688873 
	C938.319092,93.715958 938.319092,84.547325 938.319092,74.303070 
	C941.481018,75.106491 944.338257,76.252274 947.256653,76.438622 
	C949.511658,76.582603 951.822754,75.390381 954.145996,75.033020 
	C957.247925,74.555885 958.363403,76.194901 957.818970,79.492752 
z"/>
<path fill="#000000" opacity="1.000000" stroke="none" 
	d="
M734.000000,162.972244 
	C734.000000,156.836777 734.000000,151.195572 734.000000,145.278183 
	C737.297058,145.278183 740.371033,145.278183 743.725708,145.278183 
	C743.725708,154.294754 743.725708,163.369843 743.725708,172.723846 
	C740.697266,172.723846 737.625183,172.723846 734.000000,172.723846 
	C734.000000,169.687012 734.000000,166.576767 734.000000,162.972244 
z"/>
<path fill="#000000" opacity="1.000000" stroke="none" 
	d="
M469.000000,160.988373 
	C469.000000,155.516129 469.000000,150.540054 469.000000,145.282990 
	C471.956390,145.282990 474.694061,145.282990 477.721161,145.282990 
	C477.721161,154.280304 477.721161,163.357239 477.721161,172.718384 
	C475.039917,172.718384 472.301117,172.718384 469.000000,172.718384 
	C469.000000,169.034592 469.000000,165.259552 469.000000,160.988373 
z"/>
<path fill="#000000" opacity="1.000000" stroke="none" 
	d="
M611.000000,162.972107 
	C611.000000,166.447113 611.000000,169.427795 611.000000,172.702301 
	C608.070557,172.702301 605.330994,172.702301 602.291992,172.702301 
	C602.291992,163.749298 602.291992,154.671646 602.291992,145.295593 
	C604.929749,145.295593 607.669678,145.295593 611.000000,145.295593 
	C611.000000,150.939789 611.000000,156.708786 611.000000,162.972107 
z"/>
<path fill="#000000" opacity="1.000000" stroke="none" 
	d="
M402.000000,96.908051 
	C402.000000,99.040260 402.000000,100.684662 402.000000,102.663315 
	C399.155457,102.663315 396.427032,102.663315 393.347351,102.663315 
	C393.347351,93.792381 393.347351,84.639206 393.347351,75.241104 
	C396.024780,75.241104 398.749634,75.241104 402.000000,75.241104 
	C402.000000,82.300629 402.000000,89.360435 402.000000,96.908051 
z"/>
<path fill="#000000" opacity="1.000000" stroke="none" 
	d="
M733.000000,83.053329 
	C733.000000,89.851913 733.000000,96.159004 733.000000,102.731339 
	C730.014587,102.731339 727.276123,102.731339 724.265442,102.731339 
	C724.265442,93.688354 724.265442,84.610992 724.265442,75.265518 
	C726.991455,75.265518 729.729797,75.265518 733.000000,75.265518 
	C733.000000,77.677727 733.000000,80.119789 733.000000,83.053329 
z"/>
<path fill="#000000" opacity="1.000000" stroke="none" 
	d="
M610.827942,138.660126 
	C608.832764,139.557709 606.914001,140.946030 605.408997,140.589203 
	C602.407837,139.877609 599.757874,137.520676 601.227783,134.232254 
	C602.073242,132.340744 605.100708,130.206085 607.029175,130.311752 
	C609.711609,130.458710 612.636047,132.350143 611.973389,136.212845 
	C611.845642,136.957626 611.393799,137.646790 610.827942,138.660126 
z"/>
<path fill="#000000" opacity="1.000000" stroke="none" 
	d="
M474.618500,140.763580 
	C468.121613,139.422302 465.844574,135.876892 469.101440,132.605576 
	C470.404846,131.296387 472.931213,130.009995 474.444550,130.415680 
	C476.221680,130.892075 478.788666,133.308990 478.691010,134.724045 
	C478.551483,136.745728 476.303894,138.621918 474.618500,140.763580 
z"/>
<path fill="#000000" opacity="1.000000" stroke="none" 
	d="
M726.423950,70.774536 
	C722.067566,69.328720 722.016785,65.665413 723.541138,63.496487 
	C724.734985,61.797882 728.396729,61.064186 730.814270,61.316620 
	C732.041809,61.444809 734.006226,64.847061 733.771545,66.505066 
	C733.276245,70.004112 730.442444,71.524826 726.423950,70.774536 
z"/>
<path fill="#000000" opacity="1.000000" stroke="none" 
	d="
M401.712646,69.694862 
	C398.987762,69.866989 396.341675,70.345558 394.270447,69.467720 
	C393.077393,68.962059 392.099640,66.180664 392.284790,64.568314 
	C392.641968,61.458363 396.870239,59.588123 400.123566,61.142162 
	C403.869232,62.931370 403.813324,66.105164 401.712646,69.694862 
z"/>
<path fill="#000000" opacity="1.000000" stroke="none" 
	d="
M738.271362,130.305695 
	C741.096191,131.055756 744.335999,130.742874 744.166687,135.267334 
	C744.033569,138.825104 742.596130,140.871475 739.579224,140.779892 
	C737.689392,140.722534 734.765259,138.946243 734.252563,137.325256 
	C733.386414,134.586823 733.095337,130.800659 738.271362,130.305695 
z"/>
<path fill="#FEFEFE" opacity="1.000000" stroke="none" 
	d="
M137.692902,67.700912 
	C142.867126,64.939011 147.834946,62.551014 152.526520,59.707275 
	C155.581619,57.855469 158.047012,57.753109 161.212723,59.567097 
	C169.011124,64.035622 177.119446,67.965469 184.888306,72.481491 
	C186.469818,73.400818 187.964676,75.907906 188.036194,77.740181 
	C188.367477,86.226120 188.339127,94.737503 188.052170,103.226677 
	C187.994339,104.937744 186.673355,107.320923 185.222931,108.152168 
	C176.848267,112.951736 168.313354,117.484421 159.692429,121.829140 
	C158.227463,122.567451 155.760086,122.598122 154.305511,121.865021 
	C145.684448,117.520020 137.153076,112.979584 128.780838,108.175003 
	C127.332008,107.343567 126.020676,104.963615 125.957291,103.250404 
	C125.661713,95.262398 126.044022,87.248878 125.732475,79.262093 
	C125.582130,75.408035 126.545433,72.988777 130.304108,71.600815 
	C132.779449,70.686737 135.022308,69.143135 137.692902,67.700912 
z"/>
<path fill="#FEFEFE" opacity="1.000000" stroke="none" 
	d="
M116.989624,201.994171 
	C108.975838,208.434143 101.573402,208.125732 93.529755,202.275253 
	C88.338593,198.499496 82.129501,196.147430 76.550583,192.861923 
	C75.313660,192.133484 74.115608,190.178482 74.080437,188.759003 
	C73.858070,179.785156 73.855515,170.800201 74.083740,161.826645 
	C74.120064,160.398407 75.346519,158.403549 76.600449,157.699432 
	C85.146179,152.900772 93.792946,148.270828 102.549965,143.870773 
	C104.000191,143.142105 106.458046,143.192276 107.926170,143.928146 
	C116.390503,148.170639 124.780785,152.582336 132.985245,157.303268 
	C134.578552,158.220078 136.109161,160.722321 136.182068,162.552460 
	C136.519302,171.019547 136.515213,179.514648 136.187241,187.982422 
	C136.116547,189.807816 134.625534,192.241028 133.055969,193.223373 
	C127.996811,196.389740 122.595505,199.009399 116.989624,201.994171 
z"/>
<path fill="#FDFEFE" opacity="1.000000" stroke="none" 
	d="
M66.456741,116.442291 
	C57.529037,123.743988 48.959999,123.503159 40.410465,116.505493 
	C39.905109,116.091866 39.245209,115.869873 38.665821,115.543442 
	C33.189030,112.457748 25.587944,110.617905 22.834169,105.930801 
	C20.057812,101.205254 22.798748,93.545265 21.862972,87.361549 
	C20.338806,77.289696 23.916540,71.346870 33.467415,67.860619 
	C39.342613,65.716057 44.567589,61.845737 50.293720,59.203705 
	C52.038612,58.398613 54.832687,58.389404 56.542339,59.235703 
	C65.030190,63.437271 73.385056,67.926003 81.610138,72.622879 
	C83.098625,73.472878 84.607758,75.736191 84.666290,77.397789 
	C84.970665,86.038033 84.969147,94.700279 84.669090,103.340805 
	C84.611214,105.007195 83.123871,107.219063 81.648117,108.131683 
	C76.850563,111.098511 71.752464,113.579346 66.456741,116.442291 
z"/>
<path fill="#204F7A" opacity="1.000000" stroke="none" 
	d="
M95.911407,36.944889 
	C91.002960,31.982697 92.550812,25.257456 97.531731,21.528534 
	C104.312859,16.451899 109.483223,19.700806 115.015839,23.072165 
	C116.862724,24.197584 117.940559,32.833088 116.652214,35.170414 
	C114.322502,39.396988 104.262917,41.983570 100.088684,39.432381 
	C98.815155,38.654030 97.534569,37.887226 95.911407,36.944889 
z"/>
<path fill="#1F4E79" opacity="1.000000" stroke="none" 
	d="
M17.830719,155.121185 
	C18.920610,154.557022 19.798889,154.326355 20.377789,153.779022 
	C26.549109,147.944305 32.626595,151.497314 36.940044,155.521225 
	C39.229309,157.656830 39.110546,163.526459 38.313168,167.341461 
	C37.902149,169.307922 33.437943,170.228867 31.147646,172.052383 
	C28.440397,174.207901 26.163368,173.992493 23.679182,171.919388 
	C23.058119,171.401077 22.215706,171.148285 21.475616,170.772293 
	C15.443947,167.708084 13.864228,161.593430 17.830719,155.121185 
z"/>
<path fill="#204F7A" opacity="1.000000" stroke="none" 
	d="
M178.980133,152.010788 
	C182.935120,150.148209 191.237534,151.844269 193.598343,156.174438 
	C195.265030,159.231476 195.119186,163.869461 194.343170,167.493408 
	C193.614334,170.897095 182.602524,173.635727 179.205307,172.129669 
	C174.230927,169.924393 170.321060,167.881851 170.688980,160.809952 
	C171.006638,154.704300 175.270493,154.323242 178.980133,152.010788 
z"/>
<path fill="#FFFFFF" opacity="1.000000" stroke="none" 
	d="
M842.985474,160.129852 
	C842.016846,155.770370 843.625610,153.509521 847.591797,152.779831 
	C850.607666,152.224960 852.872864,153.268219 853.654541,156.238831 
	C854.522034,159.535385 854.576782,162.676666 850.426453,164.216705 
	C846.460327,165.688370 844.508423,163.679947 842.985474,160.129852 
z"/>
<path fill="#FFFFFF" opacity="1.000000" stroke="none" 
	d="
M351.139160,86.601974 
	C353.645020,83.257210 356.561066,81.431976 360.010803,84.094376 
	C362.435211,85.965462 363.798584,88.978867 361.873444,91.895416 
	C360.741119,93.610924 358.192749,95.989731 356.912140,95.655212 
	C354.689850,95.074707 352.738983,92.802567 351.125488,90.864227 
	C350.476746,90.084869 351.018555,88.314461 351.139160,86.601974 
z"/>
<path fill="#FFFFFF" opacity="1.000000" stroke="none" 
	d="
M580.203857,164.984833 
	C576.673706,163.681641 574.252380,161.437683 575.211365,158.008484 
	C575.755249,156.063721 577.927795,153.835007 579.859863,153.173065 
	C583.781189,151.829559 586.320129,154.628616 586.835266,158.073380 
	C587.461670,162.261932 584.913208,164.689194 580.203857,164.984833 
z"/>
<path fill="#FFFFFF" opacity="1.000000" stroke="none" 
	d="
M632.811829,164.999237 
	C627.816589,165.389862 625.854187,162.234619 626.276672,158.727173 
	C626.551025,156.449692 629.235718,153.176437 631.297668,152.790283 
	C633.082520,152.456009 636.490723,155.124374 637.434937,157.243576 
	C639.003540,160.764572 637.158691,163.771286 632.811829,164.999237 
z"/>
<path fill="#FFFFFF" opacity="1.000000" stroke="none" 
	d="
M669.710266,86.984268 
	C667.658081,86.997864 666.024048,86.997864 664.128967,86.997864 
	C665.200684,84.276962 666.178040,81.795769 667.155334,79.314575 
	C667.611572,79.228966 668.067810,79.143356 668.523987,79.057747 
	C669.058777,81.695389 669.593567,84.333031 669.710266,86.984268 
z"/>
<path fill="#FFFFFF" opacity="1.000000" stroke="none" 
	d="
M293.998657,75.964058 
	C292.281952,81.448776 287.998627,79.530197 284.269531,80.144302 
	C284.269531,76.789154 284.269531,73.714706 284.269531,70.611687 
	C290.399811,69.354874 292.704376,70.508141 293.998657,75.964058 
z"/>
<path fill="#FFFFFF" opacity="1.000000" stroke="none" 
	d="
M329.141174,155.320496 
	C330.644623,153.611908 332.306915,151.217773 333.836761,151.299606 
	C335.672516,151.397827 337.395355,153.606506 338.514221,155.731552 
	C335.423248,155.731552 332.332306,155.731552 329.141174,155.320496 
z"/>
<path fill="#FFFFFF" opacity="1.000000" stroke="none" 
	d="
M662.645996,155.855988 
	C663.661621,154.156067 665.134949,151.266953 666.491089,151.320953 
	C668.428162,151.398056 670.279541,153.629837 672.167480,154.941437 
	C671.939941,155.288025 671.712341,155.634613 671.484802,155.981201 
	C668.673645,155.981201 665.862549,155.981201 662.645996,155.855988 
z"/>
<path fill="#FFFFFF" opacity="1.000000" stroke="none" 
	d="
M912.021729,91.970871 
	C912.650391,89.051636 912.701355,86.055801 914.180054,84.193848 
	C915.026855,83.127602 918.992554,83.027832 920.127075,84.060555 
	C921.760437,85.547440 922.669617,88.438934 922.759644,90.774490 
	C922.810364,92.089005 920.838745,94.170822 919.347595,94.704865 
	C916.655029,95.669243 913.775269,95.329926 912.021729,91.970871 
z"/>
<path fill="#FFFFFF" opacity="1.000000" stroke="none" 
	d="
M843.333740,82.259094 
	C847.048889,80.752998 849.347595,82.072868 851.406311,85.559052 
	C847.800598,85.559052 844.643005,85.559052 841.330994,85.559052 
	C841.817566,84.672333 842.419434,83.575684 843.333740,82.259094 
z"/>
<path fill="#FFFFFF" opacity="1.000000" stroke="none" 
	d="
M514.825562,82.000900 
	C516.584290,82.883873 517.931091,83.766083 519.277893,84.648293 
	C519.147888,84.971046 519.017883,85.293793 518.887939,85.616539 
	C515.665161,85.616539 512.442444,85.616539 509.219696,85.616539 
	C509.033844,85.187019 508.847992,84.757507 508.662140,84.327988 
	C510.579285,83.552040 512.496399,82.776093 514.825562,82.000900 
z"/>
<path fill="#FFFFFF" opacity="1.000000" stroke="none" 
	d="
M808.013489,159.738586 
	C807.910645,154.757401 810.474609,152.232803 814.652405,153.253311 
	C816.760620,153.768295 819.575439,156.860382 819.672119,158.900894 
	C819.830078,162.233185 817.542114,165.716873 813.375122,164.796768 
	C811.347900,164.349152 809.793518,161.760345 808.013489,159.738586 
z"/>
<path fill="#FFFFFF" opacity="1.000000" stroke="none" 
	d="
M761.144592,164.021423 
	C759.950928,161.692459 758.433167,159.350647 758.620911,157.154678 
	C758.748291,155.664856 761.218506,153.334076 762.733276,153.259720 
	C764.767456,153.159851 768.032104,154.385651 768.692932,155.930313 
	C769.561890,157.961624 769.131104,161.344223 767.869873,163.203201 
	C767.071228,164.380432 763.741455,163.840469 761.144592,164.021423 
z"/>
<path fill="#FFFFFF" opacity="1.000000" stroke="none" 
	d="
M395.640839,161.168182 
	C393.889832,157.464783 395.630432,154.794586 398.269623,153.502228 
	C399.893921,152.706848 403.116119,153.145844 404.442535,154.339722 
	C405.777893,155.541626 406.469757,158.602310 405.941559,160.409500 
	C405.412231,162.220383 403.122192,164.547623 401.428833,164.699753 
	C399.706360,164.854492 397.770325,162.632156 395.640839,161.168182 
z"/>
<path fill="#FFFFFF" opacity="1.000000" stroke="none" 
	d="
M751.883911,92.000000 
	C753.278931,92.000000 754.259094,92.000000 755.258972,92.000000 
	C754.346680,95.497406 751.964417,97.629860 749.396301,96.895889 
	C748.441833,96.623123 747.793823,95.278442 747.006042,94.422562 
	C748.493713,93.615028 749.981323,92.807510 751.883911,92.000000 
z"/>
<path fill="#FFFFFF" opacity="1.000000" stroke="none" 
	d="
M544.328918,92.000549 
	C546.398560,92.000076 548.051880,92.000076 549.705200,92.000076 
	C549.947327,92.411903 550.189514,92.823738 550.431641,93.235565 
	C548.505493,94.489601 546.697327,96.078033 544.590942,96.821274 
	C543.825439,97.091377 542.348389,95.344795 541.195984,94.518333 
	C542.101501,93.679230 543.007080,92.840126 544.328918,92.000549 
z"/>
</svg>